<svg width="800" height="600" viewBox="0 0 800 600" fill="none" xmlns="http://www.w3.org/2000/svg">
<rect width="800" height="600" fill="white"/>
<rect x="170.5" y="96.5" width="139" height="139" rx="27.5" fill="white" stroke="#999999" stroke-dasharray="2 2"/>
<rect x="330.5" y="96.5" width="139" height="139" rx="27.5" fill="white" stroke="#999999" stroke-dasharray="2 2"/>
<rect x="490.5" y="96.5" width="139" height="139" rx="23.5" fill="white" stroke="#999999" stroke-dasharray="2 2"/>
<rect x="170.5" y="256.5" width="139" height="139" rx="23.5" fill="white" stroke="#999999" stroke-dasharray="2 2"/>
<rect x="170.5" y="416.5" width="139" height="139" rx="27.5" fill="white" stroke="#999999" stroke-dasharray="2 2"/>
<path d="M183.801 438.364C183.741 437.86 183.5 437.469 183.075 437.19C182.651 436.912 182.131 436.773 181.514 436.773C181.063 436.773 180.669 436.846 180.331 436.991C179.996 437.137 179.734 437.338 179.545 437.593C179.36 437.848 179.267 438.138 179.267 438.463C179.267 438.735 179.332 438.969 179.461 439.164C179.594 439.356 179.763 439.517 179.968 439.646C180.174 439.772 180.389 439.877 180.614 439.96C180.84 440.039 181.047 440.104 181.236 440.153L182.27 440.432C182.535 440.501 182.83 440.598 183.155 440.72C183.483 440.843 183.796 441.01 184.094 441.222C184.396 441.431 184.645 441.7 184.84 442.028C185.036 442.356 185.134 442.759 185.134 443.236C185.134 443.786 184.989 444.283 184.701 444.727C184.416 445.171 183.998 445.524 183.448 445.786C182.901 446.048 182.237 446.179 181.455 446.179C180.725 446.179 180.094 446.061 179.56 445.826C179.03 445.591 178.612 445.263 178.308 444.842C178.006 444.421 177.835 443.932 177.795 443.375H179.068C179.101 443.759 179.231 444.078 179.456 444.33C179.685 444.578 179.973 444.764 180.321 444.886C180.672 445.006 181.05 445.065 181.455 445.065C181.925 445.065 182.348 444.989 182.722 444.837C183.097 444.681 183.393 444.465 183.612 444.19C183.831 443.912 183.94 443.587 183.94 443.216C183.94 442.878 183.846 442.603 183.657 442.391C183.468 442.179 183.219 442.006 182.911 441.874C182.603 441.741 182.27 441.625 181.912 441.526L180.659 441.168C179.864 440.939 179.234 440.612 178.77 440.188C178.306 439.764 178.074 439.209 178.074 438.523C178.074 437.953 178.228 437.455 178.536 437.031C178.848 436.604 179.265 436.272 179.789 436.037C180.316 435.798 180.904 435.679 181.554 435.679C182.21 435.679 182.794 435.797 183.304 436.032C183.814 436.264 184.219 436.582 184.517 436.987C184.819 437.391 184.978 437.85 184.994 438.364H183.801ZM187.002 448.864V438.364H188.135V439.577H188.274C188.36 439.444 188.48 439.275 188.632 439.07C188.788 438.861 189.01 438.675 189.298 438.513C189.59 438.347 189.985 438.264 190.482 438.264C191.125 438.264 191.691 438.425 192.182 438.746C192.673 439.068 193.055 439.524 193.33 440.114C193.606 440.704 193.743 441.4 193.743 442.202C193.743 443.01 193.606 443.711 193.33 444.305C193.055 444.895 192.674 445.352 192.187 445.677C191.7 445.998 191.138 446.159 190.502 446.159C190.011 446.159 189.618 446.078 189.323 445.915C189.028 445.75 188.801 445.562 188.642 445.354C188.483 445.142 188.36 444.966 188.274 444.827H188.175V448.864H187.002ZM188.155 442.182C188.155 442.759 188.24 443.267 188.409 443.708C188.578 444.146 188.825 444.489 189.149 444.737C189.474 444.982 189.872 445.105 190.343 445.105C190.833 445.105 191.242 444.976 191.57 444.717C191.902 444.455 192.151 444.104 192.316 443.663C192.485 443.219 192.57 442.725 192.57 442.182C192.57 441.645 192.487 441.161 192.321 440.73C192.159 440.296 191.912 439.953 191.58 439.701C191.252 439.446 190.84 439.318 190.343 439.318C189.865 439.318 189.464 439.439 189.139 439.681C188.815 439.92 188.569 440.254 188.404 440.685C188.238 441.113 188.155 441.612 188.155 442.182ZM198.735 446.159C197.999 446.159 197.364 445.997 196.83 445.672C196.3 445.344 195.891 444.886 195.602 444.3C195.317 443.71 195.175 443.024 195.175 442.241C195.175 441.459 195.317 440.77 195.602 440.173C195.891 439.573 196.292 439.106 196.806 438.771C197.323 438.433 197.926 438.264 198.615 438.264C199.013 438.264 199.406 438.33 199.794 438.463C200.181 438.596 200.534 438.811 200.852 439.109C201.171 439.404 201.424 439.795 201.613 440.283C201.802 440.77 201.896 441.37 201.896 442.082V442.58H196.01V441.565H200.703C200.703 441.134 200.617 440.75 200.445 440.412C200.276 440.074 200.034 439.807 199.719 439.612C199.407 439.416 199.039 439.318 198.615 439.318C198.148 439.318 197.744 439.434 197.402 439.666C197.064 439.895 196.804 440.193 196.622 440.561C196.439 440.929 196.348 441.323 196.348 441.744V442.42C196.348 442.997 196.448 443.486 196.646 443.887C196.849 444.285 197.129 444.588 197.487 444.797C197.845 445.002 198.261 445.105 198.735 445.105C199.043 445.105 199.321 445.062 199.57 444.976C199.822 444.886 200.039 444.754 200.221 444.578C200.403 444.399 200.544 444.177 200.644 443.912L201.777 444.23C201.658 444.615 201.457 444.953 201.176 445.244C200.894 445.533 200.546 445.758 200.132 445.92C199.717 446.08 199.252 446.159 198.735 446.159ZM206.784 446.159C206.068 446.159 205.451 445.99 204.934 445.652C204.417 445.314 204.019 444.848 203.741 444.255C203.463 443.662 203.323 442.984 203.323 442.222C203.323 441.446 203.466 440.762 203.751 440.168C204.039 439.572 204.44 439.106 204.954 438.771C205.471 438.433 206.074 438.264 206.764 438.264C207.301 438.264 207.785 438.364 208.215 438.562C208.646 438.761 208.999 439.04 209.274 439.398C209.549 439.756 209.72 440.173 209.786 440.651H208.613C208.524 440.303 208.325 439.994 208.017 439.726C207.712 439.454 207.301 439.318 206.784 439.318C206.326 439.318 205.925 439.437 205.58 439.676C205.239 439.911 204.972 440.245 204.78 440.675C204.591 441.103 204.497 441.605 204.497 442.182C204.497 442.772 204.589 443.286 204.775 443.723C204.964 444.161 205.229 444.5 205.57 444.742C205.915 444.984 206.32 445.105 206.784 445.105C207.088 445.105 207.365 445.052 207.614 444.946C207.862 444.84 208.073 444.688 208.245 444.489C208.418 444.29 208.54 444.051 208.613 443.773H209.786C209.72 444.223 209.556 444.629 209.294 444.991C209.036 445.349 208.693 445.634 208.265 445.846C207.841 446.055 207.347 446.159 206.784 446.159ZM211.502 446V438.364H212.675V446H211.502ZM212.098 437.091C211.869 437.091 211.672 437.013 211.507 436.857C211.344 436.701 211.263 436.514 211.263 436.295C211.263 436.077 211.344 435.889 211.507 435.734C211.672 435.578 211.869 435.5 212.098 435.5C212.327 435.5 212.522 435.578 212.685 435.734C212.851 435.889 212.933 436.077 212.933 436.295C212.933 436.514 212.851 436.701 212.685 436.857C212.522 437.013 212.327 437.091 212.098 437.091ZM217.071 446.179C216.587 446.179 216.148 446.088 215.754 445.906C215.359 445.72 215.046 445.453 214.814 445.105C214.582 444.754 214.466 444.33 214.466 443.832C214.466 443.395 214.552 443.04 214.724 442.768C214.897 442.493 215.127 442.278 215.415 442.122C215.704 441.966 216.022 441.85 216.37 441.774C216.721 441.695 217.074 441.632 217.429 441.585C217.893 441.526 218.269 441.481 218.558 441.451C218.849 441.418 219.061 441.363 219.194 441.287C219.33 441.211 219.398 441.078 219.398 440.889V440.849C219.398 440.359 219.263 439.978 218.995 439.706C218.73 439.434 218.327 439.298 217.787 439.298C217.227 439.298 216.788 439.421 216.469 439.666C216.151 439.911 215.928 440.173 215.798 440.452L214.685 440.054C214.884 439.59 215.149 439.229 215.48 438.97C215.815 438.708 216.179 438.526 216.574 438.423C216.972 438.317 217.363 438.264 217.747 438.264C217.992 438.264 218.274 438.294 218.592 438.354C218.914 438.41 219.224 438.528 219.522 438.707C219.824 438.886 220.074 439.156 220.273 439.517C220.472 439.878 220.571 440.362 220.571 440.969V446H219.398V444.966H219.338C219.259 445.132 219.126 445.309 218.94 445.498C218.755 445.687 218.508 445.848 218.2 445.98C217.891 446.113 217.515 446.179 217.071 446.179ZM217.25 445.125C217.714 445.125 218.105 445.034 218.423 444.852C218.745 444.669 218.987 444.434 219.149 444.146C219.315 443.857 219.398 443.554 219.398 443.236V442.162C219.348 442.222 219.239 442.276 219.07 442.326C218.904 442.372 218.712 442.414 218.493 442.45C218.277 442.483 218.067 442.513 217.862 442.54C217.659 442.563 217.495 442.583 217.369 442.599C217.064 442.639 216.779 442.704 216.514 442.793C216.252 442.879 216.04 443.01 215.878 443.186C215.719 443.358 215.639 443.594 215.639 443.892C215.639 444.3 215.79 444.608 216.092 444.817C216.397 445.022 216.783 445.125 217.25 445.125ZM223.886 435.818V446H222.713V435.818H223.886ZM186.824 457.909C186.824 458.983 186.63 459.911 186.242 460.693C185.854 461.475 185.322 462.079 184.646 462.503C183.97 462.927 183.198 463.139 182.33 463.139C181.461 463.139 180.689 462.927 180.013 462.503C179.337 462.079 178.805 461.475 178.417 460.693C178.029 459.911 177.835 458.983 177.835 457.909C177.835 456.835 178.029 455.907 178.417 455.125C178.805 454.343 179.337 453.74 180.013 453.315C180.689 452.891 181.461 452.679 182.33 452.679C183.198 452.679 183.97 452.891 184.646 453.315C185.322 453.74 185.854 454.343 186.242 455.125C186.63 455.907 186.824 456.835 186.824 457.909ZM185.631 457.909C185.631 457.027 185.483 456.283 185.188 455.677C184.897 455.07 184.5 454.611 184 454.3C183.503 453.988 182.946 453.832 182.33 453.832C181.713 453.832 181.155 453.988 180.654 454.3C180.157 454.611 179.761 455.07 179.466 455.677C179.174 456.283 179.028 457.027 179.028 457.909C179.028 458.791 179.174 459.535 179.466 460.141C179.761 460.748 180.157 461.207 180.654 461.518C181.155 461.83 181.713 461.986 182.33 461.986C182.946 461.986 183.503 461.83 184 461.518C184.5 461.207 184.897 460.748 185.188 460.141C185.483 459.535 185.631 458.791 185.631 457.909ZM192.138 455.364V456.358H188.022V455.364H192.138ZM189.255 463V454.31C189.255 453.872 189.358 453.508 189.563 453.216C189.769 452.924 190.036 452.705 190.364 452.56C190.692 452.414 191.038 452.341 191.403 452.341C191.691 452.341 191.926 452.364 192.109 452.411C192.291 452.457 192.427 452.5 192.516 452.54L192.178 453.554C192.119 453.534 192.036 453.509 191.93 453.479C191.827 453.45 191.691 453.435 191.522 453.435C191.134 453.435 190.854 453.532 190.682 453.728C190.513 453.924 190.428 454.21 190.428 454.588V463H189.255ZM197.183 455.364V456.358H193.067V455.364H197.183ZM194.3 463V454.31C194.3 453.872 194.403 453.508 194.608 453.216C194.814 452.924 195.08 452.705 195.409 452.56C195.737 452.414 196.083 452.341 196.448 452.341C196.736 452.341 196.971 452.364 197.154 452.411C197.336 452.457 197.472 452.5 197.561 452.54L197.223 453.554C197.164 453.534 197.081 453.509 196.975 453.479C196.872 453.45 196.736 453.435 196.567 453.435C196.179 453.435 195.899 453.532 195.727 453.728C195.558 453.924 195.473 454.21 195.473 454.588V463H194.3ZM201.715 463.159C200.979 463.159 200.345 462.997 199.811 462.672C199.281 462.344 198.871 461.886 198.583 461.3C198.298 460.71 198.155 460.024 198.155 459.241C198.155 458.459 198.298 457.77 198.583 457.173C198.871 456.573 199.272 456.106 199.786 455.771C200.303 455.433 200.906 455.264 201.596 455.264C201.993 455.264 202.386 455.33 202.774 455.463C203.162 455.596 203.515 455.811 203.833 456.109C204.151 456.404 204.405 456.795 204.594 457.283C204.782 457.77 204.877 458.37 204.877 459.082V459.58H198.991V458.565H203.684C203.684 458.134 203.598 457.75 203.425 457.412C203.256 457.074 203.014 456.807 202.699 456.612C202.388 456.416 202.02 456.318 201.596 456.318C201.128 456.318 200.724 456.434 200.383 456.666C200.045 456.895 199.784 457.193 199.602 457.561C199.42 457.929 199.329 458.323 199.329 458.744V459.42C199.329 459.997 199.428 460.486 199.627 460.887C199.829 461.285 200.109 461.588 200.467 461.797C200.825 462.002 201.241 462.105 201.715 462.105C202.023 462.105 202.302 462.062 202.55 461.976C202.802 461.886 203.019 461.754 203.202 461.578C203.384 461.399 203.525 461.177 203.624 460.912L204.758 461.23C204.638 461.615 204.438 461.953 204.156 462.244C203.874 462.533 203.526 462.758 203.112 462.92C202.698 463.08 202.232 463.159 201.715 463.159ZM206.662 463V455.364H207.795V456.517H207.875C208.014 456.139 208.266 455.833 208.631 455.597C208.995 455.362 209.406 455.244 209.863 455.244C209.95 455.244 210.057 455.246 210.187 455.249C210.316 455.253 210.414 455.258 210.48 455.264V456.457C210.44 456.447 210.349 456.433 210.206 456.413C210.067 456.389 209.92 456.378 209.764 456.378C209.393 456.378 209.061 456.456 208.77 456.612C208.481 456.764 208.253 456.976 208.084 457.248C207.918 457.516 207.835 457.823 207.835 458.168V463H206.662ZM217.28 457.074L216.226 457.372C216.16 457.196 216.062 457.026 215.933 456.86C215.807 456.691 215.634 456.552 215.415 456.442C215.197 456.333 214.917 456.278 214.575 456.278C214.108 456.278 213.719 456.386 213.407 456.602C213.099 456.814 212.945 457.084 212.945 457.412C212.945 457.704 213.051 457.934 213.263 458.103C213.475 458.272 213.806 458.413 214.257 458.526L215.391 458.804C216.073 458.97 216.582 459.223 216.917 459.565C217.252 459.903 217.419 460.339 217.419 460.872C217.419 461.31 217.293 461.701 217.041 462.045C216.793 462.39 216.445 462.662 215.997 462.861C215.55 463.06 215.029 463.159 214.436 463.159C213.657 463.159 213.013 462.99 212.502 462.652C211.992 462.314 211.669 461.82 211.533 461.17L212.646 460.892C212.752 461.303 212.953 461.611 213.248 461.817C213.546 462.022 213.936 462.125 214.416 462.125C214.963 462.125 215.397 462.009 215.719 461.777C216.044 461.542 216.206 461.26 216.206 460.932C216.206 460.667 216.113 460.445 215.928 460.266C215.742 460.083 215.457 459.947 215.072 459.858L213.8 459.56C213.1 459.394 212.587 459.137 212.259 458.789C211.934 458.438 211.771 457.999 211.771 457.472C211.771 457.041 211.892 456.66 212.134 456.328C212.379 455.997 212.713 455.737 213.134 455.548C213.558 455.359 214.038 455.264 214.575 455.264C215.331 455.264 215.924 455.43 216.355 455.761C216.789 456.093 217.098 456.53 217.28 457.074ZM227.18 452.818H228.412V460.097C228.412 460.746 228.293 461.298 228.055 461.752C227.816 462.206 227.479 462.551 227.045 462.786C226.611 463.022 226.099 463.139 225.509 463.139C224.952 463.139 224.457 463.038 224.023 462.836C223.588 462.63 223.247 462.339 222.998 461.961C222.75 461.583 222.626 461.134 222.626 460.614H223.839C223.839 460.902 223.91 461.154 224.052 461.369C224.198 461.581 224.397 461.747 224.649 461.866C224.901 461.986 225.188 462.045 225.509 462.045C225.864 462.045 226.165 461.971 226.414 461.822C226.662 461.673 226.851 461.454 226.981 461.165C227.113 460.874 227.18 460.518 227.18 460.097V452.818ZM235.537 459.878V455.364H236.71V463H235.537V461.707H235.457C235.278 462.095 235 462.425 234.622 462.697C234.244 462.965 233.767 463.099 233.19 463.099C232.713 463.099 232.289 462.995 231.917 462.786C231.546 462.574 231.255 462.256 231.042 461.832C230.83 461.404 230.724 460.866 230.724 460.216V455.364H231.898V460.136C231.898 460.693 232.053 461.137 232.365 461.469C232.68 461.8 233.081 461.966 233.568 461.966C233.86 461.966 234.156 461.891 234.458 461.742C234.763 461.593 235.018 461.364 235.224 461.056C235.432 460.748 235.537 460.355 235.537 459.878ZM244.268 457.074L243.214 457.372C243.148 457.196 243.05 457.026 242.921 456.86C242.795 456.691 242.623 456.552 242.404 456.442C242.185 456.333 241.905 456.278 241.564 456.278C241.096 456.278 240.707 456.386 240.395 456.602C240.087 456.814 239.933 457.084 239.933 457.412C239.933 457.704 240.039 457.934 240.251 458.103C240.463 458.272 240.795 458.413 241.245 458.526L242.379 458.804C243.062 458.97 243.57 459.223 243.905 459.565C244.24 459.903 244.407 460.339 244.407 460.872C244.407 461.31 244.281 461.701 244.029 462.045C243.781 462.39 243.433 462.662 242.985 462.861C242.538 463.06 242.018 463.159 241.424 463.159C240.645 463.159 240.001 462.99 239.49 462.652C238.98 462.314 238.657 461.82 238.521 461.17L239.635 460.892C239.741 461.303 239.941 461.611 240.236 461.817C240.534 462.022 240.924 462.125 241.404 462.125C241.951 462.125 242.386 462.009 242.707 461.777C243.032 461.542 243.194 461.26 243.194 460.932C243.194 460.667 243.101 460.445 242.916 460.266C242.73 460.083 242.445 459.947 242.061 459.858L240.788 459.56C240.089 459.394 239.575 459.137 239.247 458.789C238.922 458.438 238.76 457.999 238.76 457.472C238.76 457.041 238.881 456.66 239.123 456.328C239.368 455.997 239.701 455.737 240.122 455.548C240.546 455.359 241.027 455.264 241.564 455.264C242.319 455.264 242.913 455.43 243.343 455.761C243.778 456.093 244.086 456.53 244.268 457.074ZM249.494 455.364V456.358H245.537V455.364H249.494ZM246.691 453.534H247.864V460.812C247.864 461.144 247.912 461.393 248.008 461.558C248.107 461.721 248.233 461.83 248.386 461.886C248.542 461.939 248.706 461.966 248.878 461.966C249.007 461.966 249.113 461.959 249.196 461.946C249.279 461.929 249.345 461.916 249.395 461.906L249.634 462.96C249.554 462.99 249.443 463.02 249.301 463.05C249.158 463.083 248.977 463.099 248.759 463.099C248.427 463.099 248.102 463.028 247.784 462.886C247.469 462.743 247.208 462.526 246.999 462.234C246.793 461.943 246.691 461.575 246.691 461.131V453.534ZM181.474 472.364V473.358H177.358V472.364H181.474ZM178.591 480V471.31C178.591 470.872 178.694 470.508 178.899 470.216C179.105 469.924 179.371 469.705 179.7 469.56C180.028 469.414 180.374 469.341 180.739 469.341C181.027 469.341 181.262 469.364 181.445 469.411C181.627 469.457 181.763 469.5 181.852 469.54L181.514 470.554C181.455 470.534 181.372 470.509 181.266 470.479C181.163 470.45 181.027 470.435 180.858 470.435C180.47 470.435 180.19 470.532 180.018 470.728C179.849 470.924 179.764 471.21 179.764 471.588V480H178.591ZM185.907 480.159C185.217 480.159 184.612 479.995 184.092 479.667C183.575 479.339 183.171 478.88 182.879 478.29C182.591 477.7 182.446 477.01 182.446 476.222C182.446 475.426 182.591 474.732 182.879 474.138C183.171 473.545 183.575 473.085 184.092 472.756C184.612 472.428 185.217 472.264 185.907 472.264C186.596 472.264 187.199 472.428 187.716 472.756C188.237 473.085 188.641 473.545 188.929 474.138C189.221 474.732 189.367 475.426 189.367 476.222C189.367 477.01 189.221 477.7 188.929 478.29C188.641 478.88 188.237 479.339 187.716 479.667C187.199 479.995 186.596 480.159 185.907 480.159ZM185.907 479.105C186.43 479.105 186.861 478.971 187.199 478.702C187.537 478.434 187.788 478.081 187.95 477.643C188.112 477.206 188.194 476.732 188.194 476.222C188.194 475.711 188.112 475.236 187.95 474.795C187.788 474.354 187.537 473.998 187.199 473.726C186.861 473.454 186.43 473.318 185.907 473.318C185.383 473.318 184.952 473.454 184.614 473.726C184.276 473.998 184.026 474.354 183.863 474.795C183.701 475.236 183.62 475.711 183.62 476.222C183.62 476.732 183.701 477.206 183.863 477.643C184.026 478.081 184.276 478.434 184.614 478.702C184.952 478.971 185.383 479.105 185.907 479.105ZM191.158 480V472.364H192.291V473.517H192.371C192.51 473.139 192.762 472.833 193.127 472.597C193.491 472.362 193.902 472.244 194.36 472.244C194.446 472.244 194.553 472.246 194.683 472.249C194.812 472.253 194.91 472.258 194.976 472.264V473.457C194.936 473.447 194.845 473.433 194.703 473.413C194.563 473.389 194.416 473.378 194.26 473.378C193.889 473.378 193.557 473.456 193.266 473.612C192.977 473.764 192.749 473.976 192.58 474.248C192.414 474.516 192.331 474.823 192.331 475.168V480H191.158ZM199.588 469.818H201L203.824 474.571H203.944L206.767 469.818H208.179L204.5 475.804V480H203.267V475.804L199.588 469.818ZM211.637 480.159C210.948 480.159 210.343 479.995 209.822 479.667C209.305 479.339 208.901 478.88 208.609 478.29C208.321 477.7 208.177 477.01 208.177 476.222C208.177 475.426 208.321 474.732 208.609 474.138C208.901 473.545 209.305 473.085 209.822 472.756C210.343 472.428 210.948 472.264 211.637 472.264C212.326 472.264 212.93 472.428 213.447 472.756C213.967 473.085 214.371 473.545 214.66 474.138C214.951 474.732 215.097 475.426 215.097 476.222C215.097 477.01 214.951 477.7 214.66 478.29C214.371 478.88 213.967 479.339 213.447 479.667C212.93 479.995 212.326 480.159 211.637 480.159ZM211.637 479.105C212.161 479.105 212.592 478.971 212.93 478.702C213.268 478.434 213.518 478.081 213.68 477.643C213.843 477.206 213.924 476.732 213.924 476.222C213.924 475.711 213.843 475.236 213.68 474.795C213.518 474.354 213.268 473.998 212.93 473.726C212.592 473.454 212.161 473.318 211.637 473.318C211.113 473.318 210.683 473.454 210.344 473.726C210.006 473.998 209.756 474.354 209.594 474.795C209.431 475.236 209.35 475.711 209.35 476.222C209.35 476.732 209.431 477.206 209.594 477.643C209.756 478.081 210.006 478.434 210.344 478.702C210.683 478.971 211.113 479.105 211.637 479.105ZM221.701 476.878V472.364H222.874V480H221.701V478.707H221.621C221.442 479.095 221.164 479.425 220.786 479.697C220.408 479.965 219.931 480.099 219.354 480.099C218.877 480.099 218.453 479.995 218.081 479.786C217.71 479.574 217.419 479.256 217.206 478.832C216.994 478.404 216.888 477.866 216.888 477.216V472.364H218.062V477.136C218.062 477.693 218.217 478.137 218.529 478.469C218.844 478.8 219.245 478.966 219.732 478.966C220.024 478.966 220.32 478.891 220.622 478.742C220.927 478.593 221.182 478.364 221.388 478.056C221.596 477.748 221.701 477.355 221.701 476.878Z" fill="white" fill-opacity="0.45"/>
<rect x="330.5" y="416.5" width="139" height="139" rx="27.5" fill="white" stroke="#999999" stroke-dasharray="2 2"/>
<path d="M343.801 438.364C343.741 437.86 343.5 437.469 343.075 437.19C342.651 436.912 342.131 436.773 341.514 436.773C341.063 436.773 340.669 436.846 340.331 436.991C339.996 437.137 339.734 437.338 339.545 437.593C339.36 437.848 339.267 438.138 339.267 438.463C339.267 438.735 339.332 438.969 339.461 439.164C339.594 439.356 339.763 439.517 339.968 439.646C340.174 439.772 340.389 439.877 340.614 439.96C340.84 440.039 341.047 440.104 341.236 440.153L342.27 440.432C342.535 440.501 342.83 440.598 343.155 440.72C343.483 440.843 343.796 441.01 344.094 441.222C344.396 441.431 344.645 441.7 344.84 442.028C345.036 442.356 345.134 442.759 345.134 443.236C345.134 443.786 344.989 444.283 344.701 444.727C344.416 445.171 343.998 445.524 343.448 445.786C342.901 446.048 342.237 446.179 341.455 446.179C340.725 446.179 340.094 446.061 339.56 445.826C339.03 445.591 338.612 445.263 338.308 444.842C338.006 444.421 337.835 443.932 337.795 443.375H339.068C339.101 443.759 339.231 444.078 339.456 444.33C339.685 444.578 339.973 444.764 340.321 444.886C340.672 445.006 341.05 445.065 341.455 445.065C341.925 445.065 342.348 444.989 342.722 444.837C343.097 444.681 343.393 444.465 343.612 444.19C343.831 443.912 343.94 443.587 343.94 443.216C343.94 442.878 343.846 442.603 343.657 442.391C343.468 442.179 343.219 442.006 342.911 441.874C342.603 441.741 342.27 441.625 341.912 441.526L340.659 441.168C339.864 440.939 339.234 440.612 338.77 440.188C338.306 439.764 338.074 439.209 338.074 438.523C338.074 437.953 338.228 437.455 338.536 437.031C338.848 436.604 339.265 436.272 339.789 436.037C340.316 435.798 340.904 435.679 341.554 435.679C342.21 435.679 342.794 435.797 343.304 436.032C343.814 436.264 344.219 436.582 344.517 436.987C344.819 437.391 344.978 437.85 344.994 438.364H343.801ZM347.002 448.864V438.364H348.135V439.577H348.274C348.36 439.444 348.48 439.275 348.632 439.07C348.788 438.861 349.01 438.675 349.298 438.513C349.59 438.347 349.985 438.264 350.482 438.264C351.125 438.264 351.691 438.425 352.182 438.746C352.673 439.068 353.055 439.524 353.33 440.114C353.606 440.704 353.743 441.4 353.743 442.202C353.743 443.01 353.606 443.711 353.33 444.305C353.055 444.895 352.674 445.352 352.187 445.677C351.7 445.998 351.138 446.159 350.502 446.159C350.011 446.159 349.618 446.078 349.323 445.915C349.028 445.75 348.801 445.562 348.642 445.354C348.483 445.142 348.36 444.966 348.274 444.827H348.175V448.864H347.002ZM348.155 442.182C348.155 442.759 348.24 443.267 348.409 443.708C348.578 444.146 348.825 444.489 349.149 444.737C349.474 444.982 349.872 445.105 350.343 445.105C350.833 445.105 351.242 444.976 351.57 444.717C351.902 444.455 352.151 444.104 352.316 443.663C352.485 443.219 352.57 442.725 352.57 442.182C352.57 441.645 352.487 441.161 352.321 440.73C352.159 440.296 351.912 439.953 351.58 439.701C351.252 439.446 350.84 439.318 350.343 439.318C349.865 439.318 349.464 439.439 349.139 439.681C348.815 439.92 348.569 440.254 348.404 440.685C348.238 441.113 348.155 441.612 348.155 442.182ZM358.735 446.159C357.999 446.159 357.364 445.997 356.83 445.672C356.3 445.344 355.891 444.886 355.602 444.3C355.317 443.71 355.175 443.024 355.175 442.241C355.175 441.459 355.317 440.77 355.602 440.173C355.891 439.573 356.292 439.106 356.806 438.771C357.323 438.433 357.926 438.264 358.615 438.264C359.013 438.264 359.406 438.33 359.794 438.463C360.181 438.596 360.534 438.811 360.852 439.109C361.171 439.404 361.424 439.795 361.613 440.283C361.802 440.77 361.896 441.37 361.896 442.082V442.58H356.01V441.565H360.703C360.703 441.134 360.617 440.75 360.445 440.412C360.276 440.074 360.034 439.807 359.719 439.612C359.407 439.416 359.039 439.318 358.615 439.318C358.148 439.318 357.744 439.434 357.402 439.666C357.064 439.895 356.804 440.193 356.622 440.561C356.439 440.929 356.348 441.323 356.348 441.744V442.42C356.348 442.997 356.448 443.486 356.646 443.887C356.849 444.285 357.129 444.588 357.487 444.797C357.845 445.002 358.261 445.105 358.735 445.105C359.043 445.105 359.321 445.062 359.57 444.976C359.822 444.886 360.039 444.754 360.221 444.578C360.403 444.399 360.544 444.177 360.644 443.912L361.777 444.23C361.658 444.615 361.457 444.953 361.176 445.244C360.894 445.533 360.546 445.758 360.132 445.92C359.717 446.08 359.252 446.159 358.735 446.159ZM366.784 446.159C366.068 446.159 365.451 445.99 364.934 445.652C364.417 445.314 364.019 444.848 363.741 444.255C363.463 443.662 363.323 442.984 363.323 442.222C363.323 441.446 363.466 440.762 363.751 440.168C364.039 439.572 364.44 439.106 364.954 438.771C365.471 438.433 366.074 438.264 366.764 438.264C367.301 438.264 367.785 438.364 368.215 438.562C368.646 438.761 368.999 439.04 369.274 439.398C369.549 439.756 369.72 440.173 369.786 440.651H368.613C368.524 440.303 368.325 439.994 368.017 439.726C367.712 439.454 367.301 439.318 366.784 439.318C366.326 439.318 365.925 439.437 365.58 439.676C365.239 439.911 364.972 440.245 364.78 440.675C364.591 441.103 364.497 441.605 364.497 442.182C364.497 442.772 364.589 443.286 364.775 443.723C364.964 444.161 365.229 444.5 365.57 444.742C365.915 444.984 366.32 445.105 366.784 445.105C367.088 445.105 367.365 445.052 367.614 444.946C367.862 444.84 368.073 444.688 368.245 444.489C368.418 444.29 368.54 444.051 368.613 443.773H369.786C369.72 444.223 369.556 444.629 369.294 444.991C369.036 445.349 368.693 445.634 368.265 445.846C367.841 446.055 367.347 446.159 366.784 446.159ZM371.502 446V438.364H372.675V446H371.502ZM372.098 437.091C371.869 437.091 371.672 437.013 371.507 436.857C371.344 436.701 371.263 436.514 371.263 436.295C371.263 436.077 371.344 435.889 371.507 435.734C371.672 435.578 371.869 435.5 372.098 435.5C372.327 435.5 372.522 435.578 372.685 435.734C372.851 435.889 372.933 436.077 372.933 436.295C372.933 436.514 372.851 436.701 372.685 436.857C372.522 437.013 372.327 437.091 372.098 437.091ZM377.071 446.179C376.587 446.179 376.148 446.088 375.754 445.906C375.359 445.72 375.046 445.453 374.814 445.105C374.582 444.754 374.466 444.33 374.466 443.832C374.466 443.395 374.552 443.04 374.724 442.768C374.897 442.493 375.127 442.278 375.415 442.122C375.704 441.966 376.022 441.85 376.37 441.774C376.721 441.695 377.074 441.632 377.429 441.585C377.893 441.526 378.269 441.481 378.558 441.451C378.849 441.418 379.061 441.363 379.194 441.287C379.33 441.211 379.398 441.078 379.398 440.889V440.849C379.398 440.359 379.263 439.978 378.995 439.706C378.73 439.434 378.327 439.298 377.787 439.298C377.227 439.298 376.788 439.421 376.469 439.666C376.151 439.911 375.928 440.173 375.798 440.452L374.685 440.054C374.884 439.59 375.149 439.229 375.48 438.97C375.815 438.708 376.179 438.526 376.574 438.423C376.972 438.317 377.363 438.264 377.747 438.264C377.992 438.264 378.274 438.294 378.592 438.354C378.914 438.41 379.224 438.528 379.522 438.707C379.824 438.886 380.074 439.156 380.273 439.517C380.472 439.878 380.571 440.362 380.571 440.969V446H379.398V444.966H379.338C379.259 445.132 379.126 445.309 378.94 445.498C378.755 445.687 378.508 445.848 378.2 445.98C377.891 446.113 377.515 446.179 377.071 446.179ZM377.25 445.125C377.714 445.125 378.105 445.034 378.423 444.852C378.745 444.669 378.987 444.434 379.149 444.146C379.315 443.857 379.398 443.554 379.398 443.236V442.162C379.348 442.222 379.239 442.276 379.07 442.326C378.904 442.372 378.712 442.414 378.493 442.45C378.277 442.483 378.067 442.513 377.862 442.54C377.659 442.563 377.495 442.583 377.369 442.599C377.064 442.639 376.779 442.704 376.514 442.793C376.252 442.879 376.04 443.01 375.878 443.186C375.719 443.358 375.639 443.594 375.639 443.892C375.639 444.3 375.79 444.608 376.092 444.817C376.397 445.022 376.783 445.125 377.25 445.125ZM383.886 435.818V446H382.713V435.818H383.886ZM346.824 457.909C346.824 458.983 346.63 459.911 346.242 460.693C345.854 461.475 345.322 462.079 344.646 462.503C343.97 462.927 343.198 463.139 342.33 463.139C341.461 463.139 340.689 462.927 340.013 462.503C339.337 462.079 338.805 461.475 338.417 460.693C338.029 459.911 337.835 458.983 337.835 457.909C337.835 456.835 338.029 455.907 338.417 455.125C338.805 454.343 339.337 453.74 340.013 453.315C340.689 452.891 341.461 452.679 342.33 452.679C343.198 452.679 343.97 452.891 344.646 453.315C345.322 453.74 345.854 454.343 346.242 455.125C346.63 455.907 346.824 456.835 346.824 457.909ZM345.631 457.909C345.631 457.027 345.483 456.283 345.188 455.677C344.897 455.07 344.5 454.611 344 454.3C343.503 453.988 342.946 453.832 342.33 453.832C341.713 453.832 341.155 453.988 340.654 454.3C340.157 454.611 339.761 455.07 339.466 455.677C339.174 456.283 339.028 457.027 339.028 457.909C339.028 458.791 339.174 459.535 339.466 460.141C339.761 460.748 340.157 461.207 340.654 461.518C341.155 461.83 341.713 461.986 342.33 461.986C342.946 461.986 343.503 461.83 344 461.518C344.5 461.207 344.897 460.748 345.188 460.141C345.483 459.535 345.631 458.791 345.631 457.909ZM352.138 455.364V456.358H348.022V455.364H352.138ZM349.255 463V454.31C349.255 453.872 349.358 453.508 349.563 453.216C349.769 452.924 350.036 452.705 350.364 452.56C350.692 452.414 351.038 452.341 351.403 452.341C351.691 452.341 351.926 452.364 352.109 452.411C352.291 452.457 352.427 452.5 352.516 452.54L352.178 453.554C352.119 453.534 352.036 453.509 351.93 453.479C351.827 453.45 351.691 453.435 351.522 453.435C351.134 453.435 350.854 453.532 350.682 453.728C350.513 453.924 350.428 454.21 350.428 454.588V463H349.255ZM357.183 455.364V456.358H353.067V455.364H357.183ZM354.3 463V454.31C354.3 453.872 354.403 453.508 354.608 453.216C354.814 452.924 355.08 452.705 355.409 452.56C355.737 452.414 356.083 452.341 356.448 452.341C356.736 452.341 356.971 452.364 357.154 452.411C357.336 452.457 357.472 452.5 357.561 452.54L357.223 453.554C357.164 453.534 357.081 453.509 356.975 453.479C356.872 453.45 356.736 453.435 356.567 453.435C356.179 453.435 355.899 453.532 355.727 453.728C355.558 453.924 355.473 454.21 355.473 454.588V463H354.3ZM361.715 463.159C360.979 463.159 360.345 462.997 359.811 462.672C359.281 462.344 358.871 461.886 358.583 461.3C358.298 460.71 358.155 460.024 358.155 459.241C358.155 458.459 358.298 457.77 358.583 457.173C358.871 456.573 359.272 456.106 359.786 455.771C360.303 455.433 360.906 455.264 361.596 455.264C361.993 455.264 362.386 455.33 362.774 455.463C363.162 455.596 363.515 455.811 363.833 456.109C364.151 456.404 364.405 456.795 364.594 457.283C364.782 457.77 364.877 458.37 364.877 459.082V459.58H358.991V458.565H363.684C363.684 458.134 363.598 457.75 363.425 457.412C363.256 457.074 363.014 456.807 362.699 456.612C362.388 456.416 362.02 456.318 361.596 456.318C361.128 456.318 360.724 456.434 360.383 456.666C360.045 456.895 359.784 457.193 359.602 457.561C359.42 457.929 359.329 458.323 359.329 458.744V459.42C359.329 459.997 359.428 460.486 359.627 460.887C359.829 461.285 360.109 461.588 360.467 461.797C360.825 462.002 361.241 462.105 361.715 462.105C362.023 462.105 362.302 462.062 362.55 461.976C362.802 461.886 363.019 461.754 363.202 461.578C363.384 461.399 363.525 461.177 363.624 460.912L364.758 461.23C364.638 461.615 364.438 461.953 364.156 462.244C363.874 462.533 363.526 462.758 363.112 462.92C362.698 463.08 362.232 463.159 361.715 463.159ZM366.662 463V455.364H367.795V456.517H367.875C368.014 456.139 368.266 455.833 368.631 455.597C368.995 455.362 369.406 455.244 369.863 455.244C369.95 455.244 370.057 455.246 370.187 455.249C370.316 455.253 370.414 455.258 370.48 455.264V456.457C370.44 456.447 370.349 456.433 370.206 456.413C370.067 456.389 369.92 456.378 369.764 456.378C369.393 456.378 369.061 456.456 368.77 456.612C368.481 456.764 368.253 456.976 368.084 457.248C367.918 457.516 367.835 457.823 367.835 458.168V463H366.662ZM377.28 457.074L376.226 457.372C376.16 457.196 376.062 457.026 375.933 456.86C375.807 456.691 375.634 456.552 375.415 456.442C375.197 456.333 374.917 456.278 374.575 456.278C374.108 456.278 373.719 456.386 373.407 456.602C373.099 456.814 372.945 457.084 372.945 457.412C372.945 457.704 373.051 457.934 373.263 458.103C373.475 458.272 373.806 458.413 374.257 458.526L375.391 458.804C376.073 458.97 376.582 459.223 376.917 459.565C377.252 459.903 377.419 460.339 377.419 460.872C377.419 461.31 377.293 461.701 377.041 462.045C376.793 462.39 376.445 462.662 375.997 462.861C375.55 463.06 375.029 463.159 374.436 463.159C373.657 463.159 373.013 462.99 372.502 462.652C371.992 462.314 371.669 461.82 371.533 461.17L372.646 460.892C372.752 461.303 372.953 461.611 373.248 461.817C373.546 462.022 373.936 462.125 374.416 462.125C374.963 462.125 375.397 462.009 375.719 461.777C376.044 461.542 376.206 461.26 376.206 460.932C376.206 460.667 376.113 460.445 375.928 460.266C375.742 460.083 375.457 459.947 375.072 459.858L373.8 459.56C373.1 459.394 372.587 459.137 372.259 458.789C371.934 458.438 371.771 457.999 371.771 457.472C371.771 457.041 371.892 456.66 372.134 456.328C372.379 455.997 372.713 455.737 373.134 455.548C373.558 455.359 374.038 455.264 374.575 455.264C375.331 455.264 375.924 455.43 376.355 455.761C376.789 456.093 377.098 456.53 377.28 457.074ZM387.18 452.818H388.412V460.097C388.412 460.746 388.293 461.298 388.055 461.752C387.816 462.206 387.479 462.551 387.045 462.786C386.611 463.022 386.099 463.139 385.509 463.139C384.952 463.139 384.457 463.038 384.023 462.836C383.588 462.63 383.247 462.339 382.998 461.961C382.75 461.583 382.626 461.134 382.626 460.614H383.839C383.839 460.902 383.91 461.154 384.052 461.369C384.198 461.581 384.397 461.747 384.649 461.866C384.901 461.986 385.188 462.045 385.509 462.045C385.864 462.045 386.165 461.971 386.414 461.822C386.662 461.673 386.851 461.454 386.981 461.165C387.113 460.874 387.18 460.518 387.18 460.097V452.818ZM395.537 459.878V455.364H396.71V463H395.537V461.707H395.457C395.278 462.095 395 462.425 394.622 462.697C394.244 462.965 393.767 463.099 393.19 463.099C392.713 463.099 392.289 462.995 391.917 462.786C391.546 462.574 391.255 462.256 391.042 461.832C390.83 461.404 390.724 460.866 390.724 460.216V455.364H391.898V460.136C391.898 460.693 392.053 461.137 392.365 461.469C392.68 461.8 393.081 461.966 393.568 461.966C393.86 461.966 394.156 461.891 394.458 461.742C394.763 461.593 395.018 461.364 395.224 461.056C395.432 460.748 395.537 460.355 395.537 459.878ZM404.268 457.074L403.214 457.372C403.148 457.196 403.05 457.026 402.921 456.86C402.795 456.691 402.623 456.552 402.404 456.442C402.185 456.333 401.905 456.278 401.564 456.278C401.096 456.278 400.707 456.386 400.395 456.602C400.087 456.814 399.933 457.084 399.933 457.412C399.933 457.704 400.039 457.934 400.251 458.103C400.463 458.272 400.795 458.413 401.245 458.526L402.379 458.804C403.062 458.97 403.57 459.223 403.905 459.565C404.24 459.903 404.407 460.339 404.407 460.872C404.407 461.31 404.281 461.701 404.029 462.045C403.781 462.39 403.433 462.662 402.985 462.861C402.538 463.06 402.018 463.159 401.424 463.159C400.645 463.159 400.001 462.99 399.49 462.652C398.98 462.314 398.657 461.82 398.521 461.17L399.635 460.892C399.741 461.303 399.941 461.611 400.236 461.817C400.534 462.022 400.924 462.125 401.404 462.125C401.951 462.125 402.386 462.009 402.707 461.777C403.032 461.542 403.194 461.26 403.194 460.932C403.194 460.667 403.101 460.445 402.916 460.266C402.73 460.083 402.445 459.947 402.061 459.858L400.788 459.56C400.089 459.394 399.575 459.137 399.247 458.789C398.922 458.438 398.76 457.999 398.76 457.472C398.76 457.041 398.881 456.66 399.123 456.328C399.368 455.997 399.701 455.737 400.122 455.548C400.546 455.359 401.027 455.264 401.564 455.264C402.319 455.264 402.913 455.43 403.343 455.761C403.778 456.093 404.086 456.53 404.268 457.074ZM409.494 455.364V456.358H405.537V455.364H409.494ZM406.691 453.534H407.864V460.812C407.864 461.144 407.912 461.393 408.008 461.558C408.107 461.721 408.233 461.83 408.386 461.886C408.542 461.939 408.706 461.966 408.878 461.966C409.007 461.966 409.113 461.959 409.196 461.946C409.279 461.929 409.345 461.916 409.395 461.906L409.634 462.96C409.554 462.99 409.443 463.02 409.301 463.05C409.158 463.083 408.977 463.099 408.759 463.099C408.427 463.099 408.102 463.028 407.784 462.886C407.469 462.743 407.208 462.526 406.999 462.234C406.793 461.943 406.691 461.575 406.691 461.131V453.534ZM341.474 472.364V473.358H337.358V472.364H341.474ZM338.591 480V471.31C338.591 470.872 338.694 470.508 338.899 470.216C339.105 469.924 339.371 469.705 339.7 469.56C340.028 469.414 340.374 469.341 340.739 469.341C341.027 469.341 341.262 469.364 341.445 469.411C341.627 469.457 341.763 469.5 341.852 469.54L341.514 470.554C341.455 470.534 341.372 470.509 341.266 470.479C341.163 470.45 341.027 470.435 340.858 470.435C340.47 470.435 340.19 470.532 340.018 470.728C339.849 470.924 339.764 471.21 339.764 471.588V480H338.591ZM345.907 480.159C345.217 480.159 344.612 479.995 344.092 479.667C343.575 479.339 343.171 478.88 342.879 478.29C342.591 477.7 342.446 477.01 342.446 476.222C342.446 475.426 342.591 474.732 342.879 474.138C343.171 473.545 343.575 473.085 344.092 472.756C344.612 472.428 345.217 472.264 345.907 472.264C346.596 472.264 347.199 472.428 347.716 472.756C348.237 473.085 348.641 473.545 348.929 474.138C349.221 474.732 349.367 475.426 349.367 476.222C349.367 477.01 349.221 477.7 348.929 478.29C348.641 478.88 348.237 479.339 347.716 479.667C347.199 479.995 346.596 480.159 345.907 480.159ZM345.907 479.105C346.43 479.105 346.861 478.971 347.199 478.702C347.537 478.434 347.788 478.081 347.95 477.643C348.112 477.206 348.194 476.732 348.194 476.222C348.194 475.711 348.112 475.236 347.95 474.795C347.788 474.354 347.537 473.998 347.199 473.726C346.861 473.454 346.43 473.318 345.907 473.318C345.383 473.318 344.952 473.454 344.614 473.726C344.276 473.998 344.026 474.354 343.863 474.795C343.701 475.236 343.62 475.711 343.62 476.222C343.62 476.732 343.701 477.206 343.863 477.643C344.026 478.081 344.276 478.434 344.614 478.702C344.952 478.971 345.383 479.105 345.907 479.105ZM351.158 480V472.364H352.291V473.517H352.371C352.51 473.139 352.762 472.833 353.127 472.597C353.491 472.362 353.902 472.244 354.36 472.244C354.446 472.244 354.553 472.246 354.683 472.249C354.812 472.253 354.91 472.258 354.976 472.264V473.457C354.936 473.447 354.845 473.433 354.703 473.413C354.563 473.389 354.416 473.378 354.26 473.378C353.889 473.378 353.557 473.456 353.266 473.612C352.977 473.764 352.749 473.976 352.58 474.248C352.414 474.516 352.331 474.823 352.331 475.168V480H351.158ZM359.588 469.818H361L363.824 474.571H363.944L366.767 469.818H368.179L364.5 475.804V480H363.267V475.804L359.588 469.818ZM371.637 480.159C370.948 480.159 370.343 479.995 369.822 479.667C369.305 479.339 368.901 478.88 368.609 478.29C368.321 477.7 368.177 477.01 368.177 476.222C368.177 475.426 368.321 474.732 368.609 474.138C368.901 473.545 369.305 473.085 369.822 472.756C370.343 472.428 370.948 472.264 371.637 472.264C372.326 472.264 372.93 472.428 373.447 472.756C373.967 473.085 374.371 473.545 374.66 474.138C374.951 474.732 375.097 475.426 375.097 476.222C375.097 477.01 374.951 477.7 374.66 478.29C374.371 478.88 373.967 479.339 373.447 479.667C372.93 479.995 372.326 480.159 371.637 480.159ZM371.637 479.105C372.161 479.105 372.592 478.971 372.93 478.702C373.268 478.434 373.518 478.081 373.68 477.643C373.843 477.206 373.924 476.732 373.924 476.222C373.924 475.711 373.843 475.236 373.68 474.795C373.518 474.354 373.268 473.998 372.93 473.726C372.592 473.454 372.161 473.318 371.637 473.318C371.113 473.318 370.683 473.454 370.344 473.726C370.006 473.998 369.756 474.354 369.594 474.795C369.431 475.236 369.35 475.711 369.35 476.222C369.35 476.732 369.431 477.206 369.594 477.643C369.756 478.081 370.006 478.434 370.344 478.702C370.683 478.971 371.113 479.105 371.637 479.105ZM381.701 476.878V472.364H382.874V480H381.701V478.707H381.621C381.442 479.095 381.164 479.425 380.786 479.697C380.408 479.965 379.931 480.099 379.354 480.099C378.877 480.099 378.453 479.995 378.081 479.786C377.71 479.574 377.419 479.256 377.206 478.832C376.994 478.404 376.888 477.866 376.888 477.216V472.364H378.062V477.136C378.062 477.693 378.217 478.137 378.529 478.469C378.844 478.8 379.245 478.966 379.732 478.966C380.024 478.966 380.32 478.891 380.622 478.742C380.927 478.593 381.182 478.364 381.388 478.056C381.596 477.748 381.701 477.355 381.701 476.878Z" fill="white" fill-opacity="0.45"/>
<rect x="330.5" y="256.5" width="139" height="139" rx="23.5" fill="white" stroke="#999999" stroke-dasharray="2 2"/>
<path d="M393 326H407" stroke="black" stroke-width="2" stroke-linecap="round" stroke-linejoin="round"/>
<path d="M400 319V333" stroke="black" stroke-width="2" stroke-linecap="round" stroke-linejoin="round"/>
<rect x="490.5" y="256.5" width="139" height="139" rx="23.5" fill="white" stroke="#999999" stroke-dasharray="2 2"/>
<path d="M553 326H567" stroke="black" stroke-width="2" stroke-linecap="round" stroke-linejoin="round"/>
<path d="M560 319V333" stroke="black" stroke-width="2" stroke-linecap="round" stroke-linejoin="round"/>
<rect x="490.5" y="416.5" width="139" height="139" rx="23.5" fill="white" stroke="#999999" stroke-dasharray="2 2"/>
<path d="M553 486H567" stroke="black" stroke-width="2" stroke-linecap="round" stroke-linejoin="round"/>
<path d="M560 479V493" stroke="black" stroke-width="2" stroke-linecap="round" stroke-linejoin="round"/>
<path d="M235 486H249" stroke="black" stroke-width="2" stroke-linecap="round" stroke-linejoin="round"/>
<path d="M242 479V493" stroke="black" stroke-width="2" stroke-linecap="round" stroke-linejoin="round"/>
<path d="M393 486H407" stroke="black" stroke-width="2" stroke-linecap="round" stroke-linejoin="round"/>
<path d="M400 479V493" stroke="black" stroke-width="2" stroke-linecap="round" stroke-linejoin="round"/>
<path d="M233 326H247" stroke="black" stroke-width="2" stroke-linecap="round" stroke-linejoin="round"/>
<path d="M240 319V333" stroke="black" stroke-width="2" stroke-linecap="round" stroke-linejoin="round"/>
<path d="M233 166H247" stroke="black" stroke-width="2" stroke-linecap="round" stroke-linejoin="round"/>
<path d="M240 159V173" stroke="black" stroke-width="2" stroke-linecap="round" stroke-linejoin="round"/>
<path d="M393 166H407" stroke="black" stroke-width="2" stroke-linecap="round" stroke-linejoin="round"/>
<path d="M400 159V173" stroke="black" stroke-width="2" stroke-linecap="round" stroke-linejoin="round"/>
<path d="M553 166H567" stroke="black" stroke-width="2" stroke-linecap="round" stroke-linejoin="round"/>
<path d="M560 159V173" stroke="black" stroke-width="2" stroke-linecap="round" stroke-linejoin="round"/>
<rect x="170" y="39" width="84" height="37" rx="18.5" fill="#F5F5F5"/>
<rect x="420" y="39" width="210" height="37" rx="18.5" fill="#F5F5F5"/>
</svg>
