<svg width="800" height="600" viewBox="0 0 800 600" fill="none" xmlns="http://www.w3.org/2000/svg">
<rect width="800" height="600" fill="white"/>
<rect x="170.5" y="96.5" width="299" height="139" rx="27.5" fill="white" stroke="#999999" stroke-dasharray="2 2"/>
<rect x="490.5" y="96.5" width="139" height="139" rx="23.5" fill="white" stroke="#999999" stroke-dasharray="2 2"/>
<rect x="170.5" y="256.5" width="139" height="139" rx="23.5" fill="white" stroke="#999999" stroke-dasharray="2 2"/>
<rect x="170.5" y="416.5" width="299" height="139" rx="27.5" fill="white" stroke="#999999" stroke-dasharray="2 2"/>
<path d="M191.801 438.364C191.741 437.86 191.5 437.469 191.075 437.19C190.651 436.912 190.131 436.773 189.514 436.773C189.063 436.773 188.669 436.846 188.331 436.991C187.996 437.137 187.734 437.338 187.545 437.593C187.36 437.848 187.267 438.138 187.267 438.463C187.267 438.735 187.332 438.969 187.461 439.164C187.594 439.356 187.763 439.517 187.968 439.646C188.174 439.772 188.389 439.877 188.614 439.96C188.84 440.039 189.047 440.104 189.236 440.153L190.27 440.432C190.535 440.501 190.83 440.598 191.155 440.72C191.483 440.843 191.796 441.01 192.094 441.222C192.396 441.431 192.645 441.7 192.84 442.028C193.036 442.356 193.134 442.759 193.134 443.236C193.134 443.786 192.989 444.283 192.701 444.727C192.416 445.171 191.998 445.524 191.448 445.786C190.901 446.048 190.237 446.179 189.455 446.179C188.725 446.179 188.094 446.061 187.56 445.826C187.03 445.591 186.612 445.263 186.308 444.842C186.006 444.421 185.835 443.932 185.795 443.375H187.068C187.101 443.759 187.231 444.078 187.456 444.33C187.685 444.578 187.973 444.764 188.321 444.886C188.672 445.006 189.05 445.065 189.455 445.065C189.925 445.065 190.348 444.989 190.722 444.837C191.097 444.681 191.393 444.465 191.612 444.19C191.831 443.912 191.94 443.587 191.94 443.216C191.94 442.878 191.846 442.603 191.657 442.391C191.468 442.179 191.219 442.006 190.911 441.874C190.603 441.741 190.27 441.625 189.912 441.526L188.659 441.168C187.864 440.939 187.234 440.612 186.77 440.188C186.306 439.764 186.074 439.209 186.074 438.523C186.074 437.953 186.228 437.455 186.536 437.031C186.848 436.604 187.265 436.272 187.789 436.037C188.316 435.798 188.904 435.679 189.554 435.679C190.21 435.679 190.794 435.797 191.304 436.032C191.814 436.264 192.219 436.582 192.517 436.987C192.819 437.391 192.978 437.85 192.994 438.364H191.801ZM195.002 448.864V438.364H196.135V439.577H196.274C196.36 439.444 196.48 439.275 196.632 439.07C196.788 438.861 197.01 438.675 197.298 438.513C197.59 438.347 197.985 438.264 198.482 438.264C199.125 438.264 199.691 438.425 200.182 438.746C200.673 439.068 201.055 439.524 201.33 440.114C201.606 440.704 201.743 441.4 201.743 442.202C201.743 443.01 201.606 443.711 201.33 444.305C201.055 444.895 200.674 445.352 200.187 445.677C199.7 445.998 199.138 446.159 198.502 446.159C198.011 446.159 197.618 446.078 197.323 445.915C197.028 445.75 196.801 445.562 196.642 445.354C196.483 445.142 196.36 444.966 196.274 444.827H196.175V448.864H195.002ZM196.155 442.182C196.155 442.759 196.24 443.267 196.409 443.708C196.578 444.146 196.825 444.489 197.149 444.737C197.474 444.982 197.872 445.105 198.343 445.105C198.833 445.105 199.242 444.976 199.57 444.717C199.902 444.455 200.151 444.104 200.316 443.663C200.485 443.219 200.57 442.725 200.57 442.182C200.57 441.645 200.487 441.161 200.321 440.73C200.159 440.296 199.912 439.953 199.58 439.701C199.252 439.446 198.84 439.318 198.343 439.318C197.865 439.318 197.464 439.439 197.139 439.681C196.815 439.92 196.569 440.254 196.404 440.685C196.238 441.113 196.155 441.612 196.155 442.182ZM206.735 446.159C205.999 446.159 205.364 445.997 204.83 445.672C204.3 445.344 203.891 444.886 203.602 444.3C203.317 443.71 203.175 443.024 203.175 442.241C203.175 441.459 203.317 440.77 203.602 440.173C203.891 439.573 204.292 439.106 204.806 438.771C205.323 438.433 205.926 438.264 206.615 438.264C207.013 438.264 207.406 438.33 207.794 438.463C208.181 438.596 208.534 438.811 208.852 439.109C209.171 439.404 209.424 439.795 209.613 440.283C209.802 440.77 209.896 441.37 209.896 442.082V442.58H204.01V441.565H208.703C208.703 441.134 208.617 440.75 208.445 440.412C208.276 440.074 208.034 439.807 207.719 439.612C207.407 439.416 207.039 439.318 206.615 439.318C206.148 439.318 205.744 439.434 205.402 439.666C205.064 439.895 204.804 440.193 204.622 440.561C204.439 440.929 204.348 441.323 204.348 441.744V442.42C204.348 442.997 204.448 443.486 204.646 443.887C204.849 444.285 205.129 444.588 205.487 444.797C205.845 445.002 206.261 445.105 206.735 445.105C207.043 445.105 207.321 445.062 207.57 444.976C207.822 444.886 208.039 444.754 208.221 444.578C208.403 444.399 208.544 444.177 208.644 443.912L209.777 444.23C209.658 444.615 209.457 444.953 209.176 445.244C208.894 445.533 208.546 445.758 208.132 445.92C207.717 446.08 207.252 446.159 206.735 446.159ZM214.784 446.159C214.068 446.159 213.451 445.99 212.934 445.652C212.417 445.314 212.019 444.848 211.741 444.255C211.463 443.662 211.323 442.984 211.323 442.222C211.323 441.446 211.466 440.762 211.751 440.168C212.039 439.572 212.44 439.106 212.954 438.771C213.471 438.433 214.074 438.264 214.764 438.264C215.301 438.264 215.785 438.364 216.215 438.562C216.646 438.761 216.999 439.04 217.274 439.398C217.549 439.756 217.72 440.173 217.786 440.651H216.613C216.524 440.303 216.325 439.994 216.017 439.726C215.712 439.454 215.301 439.318 214.784 439.318C214.326 439.318 213.925 439.437 213.58 439.676C213.239 439.911 212.972 440.245 212.78 440.675C212.591 441.103 212.497 441.605 212.497 442.182C212.497 442.772 212.589 443.286 212.775 443.723C212.964 444.161 213.229 444.5 213.57 444.742C213.915 444.984 214.32 445.105 214.784 445.105C215.088 445.105 215.365 445.052 215.614 444.946C215.862 444.84 216.073 444.688 216.245 444.489C216.418 444.29 216.54 444.051 216.613 443.773H217.786C217.72 444.223 217.556 444.629 217.294 444.991C217.036 445.349 216.693 445.634 216.265 445.846C215.841 446.055 215.347 446.159 214.784 446.159ZM219.502 446V438.364H220.675V446H219.502ZM220.098 437.091C219.869 437.091 219.672 437.013 219.507 436.857C219.344 436.701 219.263 436.514 219.263 436.295C219.263 436.077 219.344 435.889 219.507 435.734C219.672 435.578 219.869 435.5 220.098 435.5C220.327 435.5 220.522 435.578 220.685 435.734C220.851 435.889 220.933 436.077 220.933 436.295C220.933 436.514 220.851 436.701 220.685 436.857C220.522 437.013 220.327 437.091 220.098 437.091ZM225.071 446.179C224.587 446.179 224.148 446.088 223.754 445.906C223.359 445.72 223.046 445.453 222.814 445.105C222.582 444.754 222.466 444.33 222.466 443.832C222.466 443.395 222.552 443.04 222.724 442.768C222.897 442.493 223.127 442.278 223.415 442.122C223.704 441.966 224.022 441.85 224.37 441.774C224.721 441.695 225.074 441.632 225.429 441.585C225.893 441.526 226.269 441.481 226.558 441.451C226.849 441.418 227.061 441.363 227.194 441.287C227.33 441.211 227.398 441.078 227.398 440.889V440.849C227.398 440.359 227.263 439.978 226.995 439.706C226.73 439.434 226.327 439.298 225.787 439.298C225.227 439.298 224.788 439.421 224.469 439.666C224.151 439.911 223.928 440.173 223.798 440.452L222.685 440.054C222.884 439.59 223.149 439.229 223.48 438.97C223.815 438.708 224.179 438.526 224.574 438.423C224.972 438.317 225.363 438.264 225.747 438.264C225.992 438.264 226.274 438.294 226.592 438.354C226.914 438.41 227.224 438.528 227.522 438.707C227.824 438.886 228.074 439.156 228.273 439.517C228.472 439.878 228.571 440.362 228.571 440.969V446H227.398V444.966H227.338C227.259 445.132 227.126 445.309 226.94 445.498C226.755 445.687 226.508 445.848 226.2 445.98C225.891 446.113 225.515 446.179 225.071 446.179ZM225.25 445.125C225.714 445.125 226.105 445.034 226.423 444.852C226.745 444.669 226.987 444.434 227.149 444.146C227.315 443.857 227.398 443.554 227.398 443.236V442.162C227.348 442.222 227.239 442.276 227.07 442.326C226.904 442.372 226.712 442.414 226.493 442.45C226.277 442.483 226.067 442.513 225.862 442.54C225.659 442.563 225.495 442.583 225.369 442.599C225.064 442.639 224.779 442.704 224.514 442.793C224.252 442.879 224.04 443.01 223.878 443.186C223.719 443.358 223.639 443.594 223.639 443.892C223.639 444.3 223.79 444.608 224.092 444.817C224.397 445.022 224.783 445.125 225.25 445.125ZM231.886 435.818V446H230.713V435.818H231.886ZM246.722 440.909C246.722 441.983 246.528 442.911 246.141 443.693C245.753 444.475 245.221 445.079 244.545 445.503C243.869 445.927 243.096 446.139 242.228 446.139C241.36 446.139 240.587 445.927 239.911 445.503C239.235 445.079 238.703 444.475 238.315 443.693C237.928 442.911 237.734 441.983 237.734 440.909C237.734 439.835 237.928 438.907 238.315 438.125C238.703 437.343 239.235 436.74 239.911 436.315C240.587 435.891 241.36 435.679 242.228 435.679C243.096 435.679 243.869 435.891 244.545 436.315C245.221 436.74 245.753 437.343 246.141 438.125C246.528 438.907 246.722 439.835 246.722 440.909ZM245.529 440.909C245.529 440.027 245.382 439.283 245.087 438.677C244.795 438.07 244.399 437.611 243.898 437.3C243.401 436.988 242.844 436.832 242.228 436.832C241.612 436.832 241.053 436.988 240.553 437.3C240.055 437.611 239.659 438.07 239.364 438.677C239.073 439.283 238.927 440.027 238.927 440.909C238.927 441.791 239.073 442.535 239.364 443.141C239.659 443.748 240.055 444.207 240.553 444.518C241.053 444.83 241.612 444.986 242.228 444.986C242.844 444.986 243.401 444.83 243.898 444.518C244.399 444.207 244.795 443.748 245.087 443.141C245.382 442.535 245.529 441.791 245.529 440.909ZM252.037 438.364V439.358H247.92V438.364H252.037ZM249.153 446V437.31C249.153 436.872 249.256 436.508 249.462 436.216C249.667 435.924 249.934 435.705 250.262 435.56C250.59 435.414 250.937 435.341 251.301 435.341C251.589 435.341 251.825 435.364 252.007 435.411C252.189 435.457 252.325 435.5 252.415 435.54L252.077 436.554C252.017 436.534 251.934 436.509 251.828 436.479C251.725 436.45 251.589 436.435 251.42 436.435C251.033 436.435 250.753 436.532 250.58 436.728C250.411 436.924 250.327 437.21 250.327 437.588V446H249.153ZM257.082 438.364V439.358H252.965V438.364H257.082ZM254.198 446V437.31C254.198 436.872 254.301 436.508 254.507 436.216C254.712 435.924 254.979 435.705 255.307 435.56C255.635 435.414 255.981 435.341 256.346 435.341C256.634 435.341 256.87 435.364 257.052 435.411C257.234 435.457 257.37 435.5 257.46 435.54L257.122 436.554C257.062 436.534 256.979 436.509 256.873 436.479C256.77 436.45 256.634 436.435 256.465 436.435C256.078 436.435 255.798 436.532 255.625 436.728C255.456 436.924 255.372 437.21 255.372 437.588V446H254.198ZM261.613 446.159C260.878 446.159 260.243 445.997 259.709 445.672C259.179 445.344 258.77 444.886 258.481 444.3C258.196 443.71 258.054 443.024 258.054 442.241C258.054 441.459 258.196 440.77 258.481 440.173C258.77 439.573 259.171 439.106 259.684 438.771C260.202 438.433 260.805 438.264 261.494 438.264C261.892 438.264 262.285 438.33 262.672 438.463C263.06 438.596 263.413 438.811 263.731 439.109C264.05 439.404 264.303 439.795 264.492 440.283C264.681 440.77 264.775 441.37 264.775 442.082V442.58H258.889V441.565H263.582C263.582 441.134 263.496 440.75 263.324 440.412C263.155 440.074 262.913 439.807 262.598 439.612C262.286 439.416 261.918 439.318 261.494 439.318C261.027 439.318 260.622 439.434 260.281 439.666C259.943 439.895 259.683 440.193 259.501 440.561C259.318 440.929 259.227 441.323 259.227 441.744V442.42C259.227 442.997 259.327 443.486 259.525 443.887C259.728 444.285 260.008 444.588 260.366 444.797C260.724 445.002 261.14 445.105 261.613 445.105C261.922 445.105 262.2 445.062 262.449 444.976C262.701 444.886 262.918 444.754 263.1 444.578C263.282 444.399 263.423 444.177 263.523 443.912L264.656 444.23C264.537 444.615 264.336 444.953 264.055 445.244C263.773 445.533 263.425 445.758 263.01 445.92C262.596 446.08 262.131 446.159 261.613 446.159ZM266.56 446V438.364H267.694V439.517H267.773C267.912 439.139 268.164 438.833 268.529 438.597C268.894 438.362 269.305 438.244 269.762 438.244C269.848 438.244 269.956 438.246 270.085 438.249C270.214 438.253 270.312 438.258 270.378 438.264V439.457C270.339 439.447 270.247 439.433 270.105 439.413C269.966 439.389 269.818 439.378 269.662 439.378C269.291 439.378 268.96 439.456 268.668 439.612C268.38 439.764 268.151 439.976 267.982 440.248C267.816 440.516 267.733 440.823 267.733 441.168V446H266.56ZM277.178 440.074L276.124 440.372C276.058 440.196 275.96 440.026 275.831 439.86C275.705 439.691 275.533 439.552 275.314 439.442C275.095 439.333 274.815 439.278 274.474 439.278C274.006 439.278 273.617 439.386 273.305 439.602C272.997 439.814 272.843 440.084 272.843 440.412C272.843 440.704 272.949 440.934 273.161 441.103C273.373 441.272 273.705 441.413 274.156 441.526L275.289 441.804C275.972 441.97 276.481 442.223 276.815 442.565C277.15 442.903 277.317 443.339 277.317 443.872C277.317 444.31 277.192 444.701 276.94 445.045C276.691 445.39 276.343 445.662 275.896 445.861C275.448 446.06 274.928 446.159 274.335 446.159C273.556 446.159 272.911 445.99 272.401 445.652C271.89 445.314 271.567 444.82 271.431 444.17L272.545 443.892C272.651 444.303 272.851 444.611 273.146 444.817C273.445 445.022 273.834 445.125 274.315 445.125C274.862 445.125 275.296 445.009 275.617 444.777C275.942 444.542 276.104 444.26 276.104 443.932C276.104 443.667 276.012 443.445 275.826 443.266C275.64 443.083 275.355 442.947 274.971 442.858L273.698 442.56C272.999 442.394 272.485 442.137 272.157 441.789C271.832 441.438 271.67 440.999 271.67 440.472C271.67 440.041 271.791 439.66 272.033 439.328C272.278 438.997 272.611 438.737 273.032 438.548C273.456 438.359 273.937 438.264 274.474 438.264C275.229 438.264 275.823 438.43 276.254 438.761C276.688 439.093 276.996 439.53 277.178 440.074ZM287.078 435.818H288.311V443.097C288.311 443.746 288.192 444.298 287.953 444.752C287.714 445.206 287.378 445.551 286.944 445.786C286.51 446.022 285.997 446.139 285.407 446.139C284.851 446.139 284.355 446.038 283.921 445.836C283.487 445.63 283.145 445.339 282.897 444.961C282.648 444.583 282.524 444.134 282.524 443.614H283.737C283.737 443.902 283.808 444.154 283.951 444.369C284.097 444.581 284.296 444.747 284.547 444.866C284.799 444.986 285.086 445.045 285.407 445.045C285.762 445.045 286.064 444.971 286.312 444.822C286.561 444.673 286.75 444.454 286.879 444.165C287.012 443.874 287.078 443.518 287.078 443.097V435.818ZM295.435 442.878V438.364H296.608V446H295.435V444.707H295.356C295.177 445.095 294.898 445.425 294.52 445.697C294.143 445.965 293.665 446.099 293.089 446.099C292.611 446.099 292.187 445.995 291.816 445.786C291.445 445.574 291.153 445.256 290.941 444.832C290.729 444.404 290.623 443.866 290.623 443.216V438.364H291.796V443.136C291.796 443.693 291.952 444.137 292.263 444.469C292.578 444.8 292.979 444.966 293.466 444.966C293.758 444.966 294.055 444.891 294.356 444.742C294.661 444.593 294.916 444.364 295.122 444.056C295.331 443.748 295.435 443.355 295.435 442.878ZM304.167 440.074L303.113 440.372C303.046 440.196 302.949 440.026 302.819 439.86C302.693 439.691 302.521 439.552 302.302 439.442C302.083 439.333 301.803 439.278 301.462 439.278C300.995 439.278 300.605 439.386 300.294 439.602C299.985 439.814 299.831 440.084 299.831 440.412C299.831 440.704 299.937 440.934 300.15 441.103C300.362 441.272 300.693 441.413 301.144 441.526L302.277 441.804C302.96 441.97 303.469 442.223 303.804 442.565C304.138 442.903 304.306 443.339 304.306 443.872C304.306 444.31 304.18 444.701 303.928 445.045C303.679 445.39 303.331 445.662 302.884 445.861C302.436 446.06 301.916 446.159 301.323 446.159C300.544 446.159 299.899 445.99 299.389 445.652C298.878 445.314 298.555 444.82 298.419 444.17L299.533 443.892C299.639 444.303 299.84 444.611 300.135 444.817C300.433 445.022 300.822 445.125 301.303 445.125C301.85 445.125 302.284 445.009 302.605 444.777C302.93 444.542 303.093 444.26 303.093 443.932C303.093 443.667 303 443.445 302.814 443.266C302.629 443.083 302.344 442.947 301.959 442.858L300.686 442.56C299.987 442.394 299.473 442.137 299.145 441.789C298.82 441.438 298.658 440.999 298.658 440.472C298.658 440.041 298.779 439.66 299.021 439.328C299.266 438.997 299.599 438.737 300.02 438.548C300.444 438.359 300.925 438.264 301.462 438.264C302.218 438.264 302.811 438.43 303.242 438.761C303.676 439.093 303.984 439.53 304.167 440.074ZM309.393 438.364V439.358H305.436V438.364H309.393ZM306.589 436.534H307.762V443.812C307.762 444.144 307.81 444.393 307.906 444.558C308.006 444.721 308.132 444.83 308.284 444.886C308.44 444.939 308.604 444.966 308.776 444.966C308.906 444.966 309.012 444.959 309.095 444.946C309.177 444.929 309.244 444.916 309.294 444.906L309.532 445.96C309.453 445.99 309.342 446.02 309.199 446.05C309.057 446.083 308.876 446.099 308.657 446.099C308.326 446.099 308.001 446.028 307.683 445.886C307.368 445.743 307.106 445.526 306.897 445.234C306.692 444.943 306.589 444.575 306.589 444.131V436.534ZM318.496 438.364V439.358H314.379V438.364H318.496ZM315.612 446V437.31C315.612 436.872 315.715 436.508 315.921 436.216C316.126 435.924 316.393 435.705 316.721 435.56C317.049 435.414 317.396 435.341 317.76 435.341C318.048 435.341 318.284 435.364 318.466 435.411C318.648 435.457 318.784 435.5 318.874 435.54L318.536 436.554C318.476 436.534 318.393 436.509 318.287 436.479C318.184 436.45 318.048 436.435 317.879 436.435C317.492 436.435 317.212 436.532 317.039 436.728C316.87 436.924 316.786 437.21 316.786 437.588V446H315.612ZM322.928 446.159C322.239 446.159 321.634 445.995 321.113 445.667C320.596 445.339 320.192 444.88 319.9 444.29C319.612 443.7 319.468 443.01 319.468 442.222C319.468 441.426 319.612 440.732 319.9 440.138C320.192 439.545 320.596 439.085 321.113 438.756C321.634 438.428 322.239 438.264 322.928 438.264C323.617 438.264 324.221 438.428 324.738 438.756C325.258 439.085 325.662 439.545 325.951 440.138C326.242 440.732 326.388 441.426 326.388 442.222C326.388 443.01 326.242 443.7 325.951 444.29C325.662 444.88 325.258 445.339 324.738 445.667C324.221 445.995 323.617 446.159 322.928 446.159ZM322.928 445.105C323.452 445.105 323.883 444.971 324.221 444.702C324.559 444.434 324.809 444.081 324.971 443.643C325.134 443.206 325.215 442.732 325.215 442.222C325.215 441.711 325.134 441.236 324.971 440.795C324.809 440.354 324.559 439.998 324.221 439.726C323.883 439.454 323.452 439.318 322.928 439.318C322.404 439.318 321.974 439.454 321.635 439.726C321.297 439.998 321.047 440.354 320.885 440.795C320.722 441.236 320.641 441.711 320.641 442.222C320.641 442.732 320.722 443.206 320.885 443.643C321.047 444.081 321.297 444.434 321.635 444.702C321.974 444.971 322.404 445.105 322.928 445.105ZM328.179 446V438.364H329.313V439.517H329.392C329.532 439.139 329.783 438.833 330.148 438.597C330.513 438.362 330.924 438.244 331.381 438.244C331.467 438.244 331.575 438.246 331.704 438.249C331.833 438.253 331.931 438.258 331.998 438.264V439.457C331.958 439.447 331.867 439.433 331.724 439.413C331.585 439.389 331.437 439.378 331.282 439.378C330.91 439.378 330.579 439.456 330.287 439.612C329.999 439.764 329.77 439.976 329.601 440.248C329.435 440.516 329.353 440.823 329.353 441.168V446H328.179ZM336.61 435.818H338.022L340.846 440.571H340.965L343.789 435.818H345.201L341.522 441.804V446H340.289V441.804L336.61 435.818ZM348.659 446.159C347.969 446.159 347.364 445.995 346.844 445.667C346.327 445.339 345.923 444.88 345.631 444.29C345.343 443.7 345.198 443.01 345.198 442.222C345.198 441.426 345.343 440.732 345.631 440.138C345.923 439.545 346.327 439.085 346.844 438.756C347.364 438.428 347.969 438.264 348.659 438.264C349.348 438.264 349.951 438.428 350.468 438.756C350.989 439.085 351.393 439.545 351.681 440.138C351.973 440.732 352.119 441.426 352.119 442.222C352.119 443.01 351.973 443.7 351.681 444.29C351.393 444.88 350.989 445.339 350.468 445.667C349.951 445.995 349.348 446.159 348.659 446.159ZM348.659 445.105C349.182 445.105 349.613 444.971 349.951 444.702C350.289 444.434 350.539 444.081 350.702 443.643C350.864 443.206 350.945 442.732 350.945 442.222C350.945 441.711 350.864 441.236 350.702 440.795C350.539 440.354 350.289 439.998 349.951 439.726C349.613 439.454 349.182 439.318 348.659 439.318C348.135 439.318 347.704 439.454 347.366 439.726C347.028 439.998 346.778 440.354 346.615 440.795C346.453 441.236 346.372 441.711 346.372 442.222C346.372 442.732 346.453 443.206 346.615 443.643C346.778 444.081 347.028 444.434 347.366 444.702C347.704 444.971 348.135 445.105 348.659 445.105ZM358.722 442.878V438.364H359.896V446H358.722V444.707H358.643C358.464 445.095 358.185 445.425 357.808 445.697C357.43 445.965 356.952 446.099 356.376 446.099C355.898 446.099 355.474 445.995 355.103 445.786C354.732 445.574 354.44 445.256 354.228 444.832C354.016 444.404 353.91 443.866 353.91 443.216V438.364H355.083V443.136C355.083 443.693 355.239 444.137 355.55 444.469C355.865 444.8 356.266 444.966 356.754 444.966C357.045 444.966 357.342 444.891 357.643 444.742C357.948 444.593 358.204 444.364 358.409 444.056C358.618 443.748 358.722 443.355 358.722 442.878Z" fill="white" fill-opacity="0.45"/>
<rect x="330.5" y="256.5" width="139" height="139" rx="23.5" fill="white" stroke="#999999" stroke-dasharray="2 2"/>
<path d="M393 326H407" stroke="black" stroke-width="2" stroke-linecap="round" stroke-linejoin="round"/>
<path d="M400 319V333" stroke="black" stroke-width="2" stroke-linecap="round" stroke-linejoin="round"/>
<rect x="490.5" y="256.5" width="139" height="139" rx="23.5" fill="white" stroke="#999999" stroke-dasharray="2 2"/>
<path d="M553 326H567" stroke="black" stroke-width="2" stroke-linecap="round" stroke-linejoin="round"/>
<path d="M560 319V333" stroke="black" stroke-width="2" stroke-linecap="round" stroke-linejoin="round"/>
<rect x="490.5" y="416.5" width="139" height="139" rx="23.5" fill="white" stroke="#999999" stroke-dasharray="2 2"/>
<path d="M553 486H567" stroke="black" stroke-width="2" stroke-linecap="round" stroke-linejoin="round"/>
<path d="M560 479V493" stroke="black" stroke-width="2" stroke-linecap="round" stroke-linejoin="round"/>
<path d="M313 486H327" stroke="black" stroke-width="2" stroke-linecap="round" stroke-linejoin="round"/>
<path d="M320 479V493" stroke="black" stroke-width="2" stroke-linecap="round" stroke-linejoin="round"/>
<path d="M233 326H247" stroke="black" stroke-width="2" stroke-linecap="round" stroke-linejoin="round"/>
<path d="M240 319V333" stroke="black" stroke-width="2" stroke-linecap="round" stroke-linejoin="round"/>
<path d="M311 166H325" stroke="black" stroke-width="2" stroke-linecap="round" stroke-linejoin="round"/>
<path d="M318 159V173" stroke="black" stroke-width="2" stroke-linecap="round" stroke-linejoin="round"/>
<path d="M553 166H567" stroke="black" stroke-width="2" stroke-linecap="round" stroke-linejoin="round"/>
<path d="M560 159V173" stroke="black" stroke-width="2" stroke-linecap="round" stroke-linejoin="round"/>
<rect x="170" y="39" width="84" height="37" rx="18.5" fill="#F5F5F5"/>
<rect x="420" y="39" width="210" height="37" rx="18.5" fill="#F5F5F5"/>
</svg>
