<svg width="800" height="600" viewBox="0 0 800 600" fill="none" xmlns="http://www.w3.org/2000/svg">
<rect width="800" height="600" fill="white"/>
<rect x="170.5" y="96.5" width="139" height="299" rx="27.5" fill="white" stroke="#999999" stroke-dasharray="2 2"/>
<path d="M233 246H247" stroke="black" stroke-width="2" stroke-linecap="round" stroke-linejoin="round"/>
<path d="M240 239V253" stroke="black" stroke-width="2" stroke-linecap="round" stroke-linejoin="round"/>
<rect x="330.5" y="96.5" width="299" height="139" rx="27.5" fill="white" stroke="#999999" stroke-dasharray="2 2"/>
<path d="M473 166H487" stroke="black" stroke-width="2" stroke-linecap="round" stroke-linejoin="round"/>
<path d="M480 159V173" stroke="black" stroke-width="2" stroke-linecap="round" stroke-linejoin="round"/>
<rect x="170.5" y="416.5" width="299" height="139" rx="27.5" fill="white" stroke="#999999" stroke-dasharray="2 2"/>
<path d="M183.801 438.364C183.741 437.86 183.5 437.469 183.075 437.19C182.651 436.912 182.131 436.773 181.514 436.773C181.063 436.773 180.669 436.846 180.331 436.991C179.996 437.137 179.734 437.338 179.545 437.593C179.36 437.848 179.267 438.138 179.267 438.463C179.267 438.735 179.332 438.969 179.461 439.164C179.594 439.356 179.763 439.517 179.968 439.646C180.174 439.772 180.389 439.877 180.614 439.96C180.84 440.039 181.047 440.104 181.236 440.153L182.27 440.432C182.535 440.501 182.83 440.598 183.155 440.72C183.483 440.843 183.796 441.01 184.094 441.222C184.396 441.431 184.645 441.7 184.84 442.028C185.036 442.356 185.134 442.759 185.134 443.236C185.134 443.786 184.989 444.283 184.701 444.727C184.416 445.171 183.998 445.524 183.448 445.786C182.901 446.048 182.237 446.179 181.455 446.179C180.725 446.179 180.094 446.061 179.56 445.826C179.03 445.591 178.612 445.263 178.308 444.842C178.006 444.421 177.835 443.932 177.795 443.375H179.068C179.101 443.759 179.231 444.078 179.456 444.33C179.685 444.578 179.973 444.764 180.321 444.886C180.672 445.006 181.05 445.065 181.455 445.065C181.925 445.065 182.348 444.989 182.722 444.837C183.097 444.681 183.393 444.465 183.612 444.19C183.831 443.912 183.94 443.587 183.94 443.216C183.94 442.878 183.846 442.603 183.657 442.391C183.468 442.179 183.219 442.006 182.911 441.874C182.603 441.741 182.27 441.625 181.912 441.526L180.659 441.168C179.864 440.939 179.234 440.612 178.77 440.188C178.306 439.764 178.074 439.209 178.074 438.523C178.074 437.953 178.228 437.455 178.536 437.031C178.848 436.604 179.265 436.272 179.789 436.037C180.316 435.798 180.904 435.679 181.554 435.679C182.21 435.679 182.794 435.797 183.304 436.032C183.814 436.264 184.219 436.582 184.517 436.987C184.819 437.391 184.978 437.85 184.994 438.364H183.801ZM187.002 448.864V438.364H188.135V439.577H188.274C188.36 439.444 188.48 439.275 188.632 439.07C188.788 438.861 189.01 438.675 189.298 438.513C189.59 438.347 189.985 438.264 190.482 438.264C191.125 438.264 191.691 438.425 192.182 438.746C192.673 439.068 193.055 439.524 193.33 440.114C193.606 440.704 193.743 441.4 193.743 442.202C193.743 443.01 193.606 443.711 193.33 444.305C193.055 444.895 192.674 445.352 192.187 445.677C191.7 445.998 191.138 446.159 190.502 446.159C190.011 446.159 189.618 446.078 189.323 445.915C189.028 445.75 188.801 445.562 188.642 445.354C188.483 445.142 188.36 444.966 188.274 444.827H188.175V448.864H187.002ZM188.155 442.182C188.155 442.759 188.24 443.267 188.409 443.708C188.578 444.146 188.825 444.489 189.149 444.737C189.474 444.982 189.872 445.105 190.343 445.105C190.833 445.105 191.242 444.976 191.57 444.717C191.902 444.455 192.151 444.104 192.316 443.663C192.485 443.219 192.57 442.725 192.57 442.182C192.57 441.645 192.487 441.161 192.321 440.73C192.159 440.296 191.912 439.953 191.58 439.701C191.252 439.446 190.84 439.318 190.343 439.318C189.865 439.318 189.464 439.439 189.139 439.681C188.815 439.92 188.569 440.254 188.404 440.685C188.238 441.113 188.155 441.612 188.155 442.182ZM198.735 446.159C197.999 446.159 197.364 445.997 196.83 445.672C196.3 445.344 195.891 444.886 195.602 444.3C195.317 443.71 195.175 443.024 195.175 442.241C195.175 441.459 195.317 440.77 195.602 440.173C195.891 439.573 196.292 439.106 196.806 438.771C197.323 438.433 197.926 438.264 198.615 438.264C199.013 438.264 199.406 438.33 199.794 438.463C200.181 438.596 200.534 438.811 200.852 439.109C201.171 439.404 201.424 439.795 201.613 440.283C201.802 440.77 201.896 441.37 201.896 442.082V442.58H196.01V441.565H200.703C200.703 441.134 200.617 440.75 200.445 440.412C200.276 440.074 200.034 439.807 199.719 439.612C199.407 439.416 199.039 439.318 198.615 439.318C198.148 439.318 197.744 439.434 197.402 439.666C197.064 439.895 196.804 440.193 196.622 440.561C196.439 440.929 196.348 441.323 196.348 441.744V442.42C196.348 442.997 196.448 443.486 196.646 443.887C196.849 444.285 197.129 444.588 197.487 444.797C197.845 445.002 198.261 445.105 198.735 445.105C199.043 445.105 199.321 445.062 199.57 444.976C199.822 444.886 200.039 444.754 200.221 444.578C200.403 444.399 200.544 444.177 200.644 443.912L201.777 444.23C201.658 444.615 201.457 444.953 201.176 445.244C200.894 445.533 200.546 445.758 200.132 445.92C199.717 446.08 199.252 446.159 198.735 446.159ZM206.784 446.159C206.068 446.159 205.451 445.99 204.934 445.652C204.417 445.314 204.019 444.848 203.741 444.255C203.463 443.662 203.323 442.984 203.323 442.222C203.323 441.446 203.466 440.762 203.751 440.168C204.039 439.572 204.44 439.106 204.954 438.771C205.471 438.433 206.074 438.264 206.764 438.264C207.301 438.264 207.785 438.364 208.215 438.562C208.646 438.761 208.999 439.04 209.274 439.398C209.549 439.756 209.72 440.173 209.786 440.651H208.613C208.524 440.303 208.325 439.994 208.017 439.726C207.712 439.454 207.301 439.318 206.784 439.318C206.326 439.318 205.925 439.437 205.58 439.676C205.239 439.911 204.972 440.245 204.78 440.675C204.591 441.103 204.497 441.605 204.497 442.182C204.497 442.772 204.589 443.286 204.775 443.723C204.964 444.161 205.229 444.5 205.57 444.742C205.915 444.984 206.32 445.105 206.784 445.105C207.088 445.105 207.365 445.052 207.614 444.946C207.862 444.84 208.073 444.688 208.245 444.489C208.418 444.29 208.54 444.051 208.613 443.773H209.786C209.72 444.223 209.556 444.629 209.294 444.991C209.036 445.349 208.693 445.634 208.265 445.846C207.841 446.055 207.347 446.159 206.784 446.159ZM211.502 446V438.364H212.675V446H211.502ZM212.098 437.091C211.869 437.091 211.672 437.013 211.507 436.857C211.344 436.701 211.263 436.514 211.263 436.295C211.263 436.077 211.344 435.889 211.507 435.734C211.672 435.578 211.869 435.5 212.098 435.5C212.327 435.5 212.522 435.578 212.685 435.734C212.851 435.889 212.933 436.077 212.933 436.295C212.933 436.514 212.851 436.701 212.685 436.857C212.522 437.013 212.327 437.091 212.098 437.091ZM217.071 446.179C216.587 446.179 216.148 446.088 215.754 445.906C215.359 445.72 215.046 445.453 214.814 445.105C214.582 444.754 214.466 444.33 214.466 443.832C214.466 443.395 214.552 443.04 214.724 442.768C214.897 442.493 215.127 442.278 215.415 442.122C215.704 441.966 216.022 441.85 216.37 441.774C216.721 441.695 217.074 441.632 217.429 441.585C217.893 441.526 218.269 441.481 218.558 441.451C218.849 441.418 219.061 441.363 219.194 441.287C219.33 441.211 219.398 441.078 219.398 440.889V440.849C219.398 440.359 219.263 439.978 218.995 439.706C218.73 439.434 218.327 439.298 217.787 439.298C217.227 439.298 216.788 439.421 216.469 439.666C216.151 439.911 215.928 440.173 215.798 440.452L214.685 440.054C214.884 439.59 215.149 439.229 215.48 438.97C215.815 438.708 216.179 438.526 216.574 438.423C216.972 438.317 217.363 438.264 217.747 438.264C217.992 438.264 218.274 438.294 218.592 438.354C218.914 438.41 219.224 438.528 219.522 438.707C219.824 438.886 220.074 439.156 220.273 439.517C220.472 439.878 220.571 440.362 220.571 440.969V446H219.398V444.966H219.338C219.259 445.132 219.126 445.309 218.94 445.498C218.755 445.687 218.508 445.848 218.2 445.98C217.891 446.113 217.515 446.179 217.071 446.179ZM217.25 445.125C217.714 445.125 218.105 445.034 218.423 444.852C218.745 444.669 218.987 444.434 219.149 444.146C219.315 443.857 219.398 443.554 219.398 443.236V442.162C219.348 442.222 219.239 442.276 219.07 442.326C218.904 442.372 218.712 442.414 218.493 442.45C218.277 442.483 218.067 442.513 217.862 442.54C217.659 442.563 217.495 442.583 217.369 442.599C217.064 442.639 216.779 442.704 216.514 442.793C216.252 442.879 216.04 443.01 215.878 443.186C215.719 443.358 215.639 443.594 215.639 443.892C215.639 444.3 215.79 444.608 216.092 444.817C216.397 445.022 216.783 445.125 217.25 445.125ZM223.886 435.818V446H222.713V435.818H223.886ZM186.824 457.909C186.824 458.983 186.63 459.911 186.242 460.693C185.854 461.475 185.322 462.079 184.646 462.503C183.97 462.927 183.198 463.139 182.33 463.139C181.461 463.139 180.689 462.927 180.013 462.503C179.337 462.079 178.805 461.475 178.417 460.693C178.029 459.911 177.835 458.983 177.835 457.909C177.835 456.835 178.029 455.907 178.417 455.125C178.805 454.343 179.337 453.74 180.013 453.315C180.689 452.891 181.461 452.679 182.33 452.679C183.198 452.679 183.97 452.891 184.646 453.315C185.322 453.74 185.854 454.343 186.242 455.125C186.63 455.907 186.824 456.835 186.824 457.909ZM185.631 457.909C185.631 457.027 185.483 456.283 185.188 455.677C184.897 455.07 184.5 454.611 184 454.3C183.503 453.988 182.946 453.832 182.33 453.832C181.713 453.832 181.155 453.988 180.654 454.3C180.157 454.611 179.761 455.07 179.466 455.677C179.174 456.283 179.028 457.027 179.028 457.909C179.028 458.791 179.174 459.535 179.466 460.141C179.761 460.748 180.157 461.207 180.654 461.518C181.155 461.83 181.713 461.986 182.33 461.986C182.946 461.986 183.503 461.83 184 461.518C184.5 461.207 184.897 460.748 185.188 460.141C185.483 459.535 185.631 458.791 185.631 457.909ZM192.138 455.364V456.358H188.022V455.364H192.138ZM189.255 463V454.31C189.255 453.872 189.358 453.508 189.563 453.216C189.769 452.924 190.036 452.705 190.364 452.56C190.692 452.414 191.038 452.341 191.403 452.341C191.691 452.341 191.926 452.364 192.109 452.411C192.291 452.457 192.427 452.5 192.516 452.54L192.178 453.554C192.119 453.534 192.036 453.509 191.93 453.479C191.827 453.45 191.691 453.435 191.522 453.435C191.134 453.435 190.854 453.532 190.682 453.728C190.513 453.924 190.428 454.21 190.428 454.588V463H189.255ZM197.183 455.364V456.358H193.067V455.364H197.183ZM194.3 463V454.31C194.3 453.872 194.403 453.508 194.608 453.216C194.814 452.924 195.08 452.705 195.409 452.56C195.737 452.414 196.083 452.341 196.448 452.341C196.736 452.341 196.971 452.364 197.154 452.411C197.336 452.457 197.472 452.5 197.561 452.54L197.223 453.554C197.164 453.534 197.081 453.509 196.975 453.479C196.872 453.45 196.736 453.435 196.567 453.435C196.179 453.435 195.899 453.532 195.727 453.728C195.558 453.924 195.473 454.21 195.473 454.588V463H194.3ZM201.715 463.159C200.979 463.159 200.345 462.997 199.811 462.672C199.281 462.344 198.871 461.886 198.583 461.3C198.298 460.71 198.155 460.024 198.155 459.241C198.155 458.459 198.298 457.77 198.583 457.173C198.871 456.573 199.272 456.106 199.786 455.771C200.303 455.433 200.906 455.264 201.596 455.264C201.993 455.264 202.386 455.33 202.774 455.463C203.162 455.596 203.515 455.811 203.833 456.109C204.151 456.404 204.405 456.795 204.594 457.283C204.782 457.77 204.877 458.37 204.877 459.082V459.58H198.991V458.565H203.684C203.684 458.134 203.598 457.75 203.425 457.412C203.256 457.074 203.014 456.807 202.699 456.612C202.388 456.416 202.02 456.318 201.596 456.318C201.128 456.318 200.724 456.434 200.383 456.666C200.045 456.895 199.784 457.193 199.602 457.561C199.42 457.929 199.329 458.323 199.329 458.744V459.42C199.329 459.997 199.428 460.486 199.627 460.887C199.829 461.285 200.109 461.588 200.467 461.797C200.825 462.002 201.241 462.105 201.715 462.105C202.023 462.105 202.302 462.062 202.55 461.976C202.802 461.886 203.019 461.754 203.202 461.578C203.384 461.399 203.525 461.177 203.624 460.912L204.758 461.23C204.638 461.615 204.438 461.953 204.156 462.244C203.874 462.533 203.526 462.758 203.112 462.92C202.698 463.08 202.232 463.159 201.715 463.159ZM206.662 463V455.364H207.795V456.517H207.875C208.014 456.139 208.266 455.833 208.631 455.597C208.995 455.362 209.406 455.244 209.863 455.244C209.95 455.244 210.057 455.246 210.187 455.249C210.316 455.253 210.414 455.258 210.48 455.264V456.457C210.44 456.447 210.349 456.433 210.206 456.413C210.067 456.389 209.92 456.378 209.764 456.378C209.393 456.378 209.061 456.456 208.77 456.612C208.481 456.764 208.253 456.976 208.084 457.248C207.918 457.516 207.835 457.823 207.835 458.168V463H206.662ZM217.28 457.074L216.226 457.372C216.16 457.196 216.062 457.026 215.933 456.86C215.807 456.691 215.634 456.552 215.415 456.442C215.197 456.333 214.917 456.278 214.575 456.278C214.108 456.278 213.719 456.386 213.407 456.602C213.099 456.814 212.945 457.084 212.945 457.412C212.945 457.704 213.051 457.934 213.263 458.103C213.475 458.272 213.806 458.413 214.257 458.526L215.391 458.804C216.073 458.97 216.582 459.223 216.917 459.565C217.252 459.903 217.419 460.339 217.419 460.872C217.419 461.31 217.293 461.701 217.041 462.045C216.793 462.39 216.445 462.662 215.997 462.861C215.55 463.06 215.029 463.159 214.436 463.159C213.657 463.159 213.013 462.99 212.502 462.652C211.992 462.314 211.669 461.82 211.533 461.17L212.646 460.892C212.752 461.303 212.953 461.611 213.248 461.817C213.546 462.022 213.936 462.125 214.416 462.125C214.963 462.125 215.397 462.009 215.719 461.777C216.044 461.542 216.206 461.26 216.206 460.932C216.206 460.667 216.113 460.445 215.928 460.266C215.742 460.083 215.457 459.947 215.072 459.858L213.8 459.56C213.1 459.394 212.587 459.137 212.259 458.789C211.934 458.438 211.771 457.999 211.771 457.472C211.771 457.041 211.892 456.66 212.134 456.328C212.379 455.997 212.713 455.737 213.134 455.548C213.558 455.359 214.038 455.264 214.575 455.264C215.331 455.264 215.924 455.43 216.355 455.761C216.789 456.093 217.098 456.53 217.28 457.074ZM227.18 452.818H228.412V460.097C228.412 460.746 228.293 461.298 228.055 461.752C227.816 462.206 227.479 462.551 227.045 462.786C226.611 463.022 226.099 463.139 225.509 463.139C224.952 463.139 224.457 463.038 224.023 462.836C223.588 462.63 223.247 462.339 222.998 461.961C222.75 461.583 222.626 461.134 222.626 460.614H223.839C223.839 460.902 223.91 461.154 224.052 461.369C224.198 461.581 224.397 461.747 224.649 461.866C224.901 461.986 225.188 462.045 225.509 462.045C225.864 462.045 226.165 461.971 226.414 461.822C226.662 461.673 226.851 461.454 226.981 461.165C227.113 460.874 227.18 460.518 227.18 460.097V452.818ZM235.537 459.878V455.364H236.71V463H235.537V461.707H235.457C235.278 462.095 235 462.425 234.622 462.697C234.244 462.965 233.767 463.099 233.19 463.099C232.713 463.099 232.289 462.995 231.917 462.786C231.546 462.574 231.255 462.256 231.042 461.832C230.83 461.404 230.724 460.866 230.724 460.216V455.364H231.898V460.136C231.898 460.693 232.053 461.137 232.365 461.469C232.68 461.8 233.081 461.966 233.568 461.966C233.86 461.966 234.156 461.891 234.458 461.742C234.763 461.593 235.018 461.364 235.224 461.056C235.432 460.748 235.537 460.355 235.537 459.878ZM244.268 457.074L243.214 457.372C243.148 457.196 243.05 457.026 242.921 456.86C242.795 456.691 242.623 456.552 242.404 456.442C242.185 456.333 241.905 456.278 241.564 456.278C241.096 456.278 240.707 456.386 240.395 456.602C240.087 456.814 239.933 457.084 239.933 457.412C239.933 457.704 240.039 457.934 240.251 458.103C240.463 458.272 240.795 458.413 241.245 458.526L242.379 458.804C243.062 458.97 243.57 459.223 243.905 459.565C244.24 459.903 244.407 460.339 244.407 460.872C244.407 461.31 244.281 461.701 244.029 462.045C243.781 462.39 243.433 462.662 242.985 462.861C242.538 463.06 242.018 463.159 241.424 463.159C240.645 463.159 240.001 462.99 239.49 462.652C238.98 462.314 238.657 461.82 238.521 461.17L239.635 460.892C239.741 461.303 239.941 461.611 240.236 461.817C240.534 462.022 240.924 462.125 241.404 462.125C241.951 462.125 242.386 462.009 242.707 461.777C243.032 461.542 243.194 461.26 243.194 460.932C243.194 460.667 243.101 460.445 242.916 460.266C242.73 460.083 242.445 459.947 242.061 459.858L240.788 459.56C240.089 459.394 239.575 459.137 239.247 458.789C238.922 458.438 238.76 457.999 238.76 457.472C238.76 457.041 238.881 456.66 239.123 456.328C239.368 455.997 239.701 455.737 240.122 455.548C240.546 455.359 241.027 455.264 241.564 455.264C242.319 455.264 242.913 455.43 243.343 455.761C243.778 456.093 244.086 456.53 244.268 457.074ZM249.494 455.364V456.358H245.537V455.364H249.494ZM246.691 453.534H247.864V460.812C247.864 461.144 247.912 461.393 248.008 461.558C248.107 461.721 248.233 461.83 248.386 461.886C248.542 461.939 248.706 461.966 248.878 461.966C249.007 461.966 249.113 461.959 249.196 461.946C249.279 461.929 249.345 461.916 249.395 461.906L249.634 462.96C249.554 462.99 249.443 463.02 249.301 463.05C249.158 463.083 248.977 463.099 248.759 463.099C248.427 463.099 248.102 463.028 247.784 462.886C247.469 462.743 247.208 462.526 246.999 462.234C246.793 461.943 246.691 461.575 246.691 461.131V453.534ZM181.474 472.364V473.358H177.358V472.364H181.474ZM178.591 480V471.31C178.591 470.872 178.694 470.508 178.899 470.216C179.105 469.924 179.371 469.705 179.7 469.56C180.028 469.414 180.374 469.341 180.739 469.341C181.027 469.341 181.262 469.364 181.445 469.411C181.627 469.457 181.763 469.5 181.852 469.54L181.514 470.554C181.455 470.534 181.372 470.509 181.266 470.479C181.163 470.45 181.027 470.435 180.858 470.435C180.47 470.435 180.19 470.532 180.018 470.728C179.849 470.924 179.764 471.21 179.764 471.588V480H178.591ZM185.907 480.159C185.217 480.159 184.612 479.995 184.092 479.667C183.575 479.339 183.171 478.88 182.879 478.29C182.591 477.7 182.446 477.01 182.446 476.222C182.446 475.426 182.591 474.732 182.879 474.138C183.171 473.545 183.575 473.085 184.092 472.756C184.612 472.428 185.217 472.264 185.907 472.264C186.596 472.264 187.199 472.428 187.716 472.756C188.237 473.085 188.641 473.545 188.929 474.138C189.221 474.732 189.367 475.426 189.367 476.222C189.367 477.01 189.221 477.7 188.929 478.29C188.641 478.88 188.237 479.339 187.716 479.667C187.199 479.995 186.596 480.159 185.907 480.159ZM185.907 479.105C186.43 479.105 186.861 478.971 187.199 478.702C187.537 478.434 187.788 478.081 187.95 477.643C188.112 477.206 188.194 476.732 188.194 476.222C188.194 475.711 188.112 475.236 187.95 474.795C187.788 474.354 187.537 473.998 187.199 473.726C186.861 473.454 186.43 473.318 185.907 473.318C185.383 473.318 184.952 473.454 184.614 473.726C184.276 473.998 184.026 474.354 183.863 474.795C183.701 475.236 183.62 475.711 183.62 476.222C183.62 476.732 183.701 477.206 183.863 477.643C184.026 478.081 184.276 478.434 184.614 478.702C184.952 478.971 185.383 479.105 185.907 479.105ZM191.158 480V472.364H192.291V473.517H192.371C192.51 473.139 192.762 472.833 193.127 472.597C193.491 472.362 193.902 472.244 194.36 472.244C194.446 472.244 194.553 472.246 194.683 472.249C194.812 472.253 194.91 472.258 194.976 472.264V473.457C194.936 473.447 194.845 473.433 194.703 473.413C194.563 473.389 194.416 473.378 194.26 473.378C193.889 473.378 193.557 473.456 193.266 473.612C192.977 473.764 192.749 473.976 192.58 474.248C192.414 474.516 192.331 474.823 192.331 475.168V480H191.158ZM199.588 469.818H201L203.824 474.571H203.944L206.767 469.818H208.179L204.5 475.804V480H203.267V475.804L199.588 469.818ZM211.637 480.159C210.948 480.159 210.343 479.995 209.822 479.667C209.305 479.339 208.901 478.88 208.609 478.29C208.321 477.7 208.177 477.01 208.177 476.222C208.177 475.426 208.321 474.732 208.609 474.138C208.901 473.545 209.305 473.085 209.822 472.756C210.343 472.428 210.948 472.264 211.637 472.264C212.326 472.264 212.93 472.428 213.447 472.756C213.967 473.085 214.371 473.545 214.66 474.138C214.951 474.732 215.097 475.426 215.097 476.222C215.097 477.01 214.951 477.7 214.66 478.29C214.371 478.88 213.967 479.339 213.447 479.667C212.93 479.995 212.326 480.159 211.637 480.159ZM211.637 479.105C212.161 479.105 212.592 478.971 212.93 478.702C213.268 478.434 213.518 478.081 213.68 477.643C213.843 477.206 213.924 476.732 213.924 476.222C213.924 475.711 213.843 475.236 213.68 474.795C213.518 474.354 213.268 473.998 212.93 473.726C212.592 473.454 212.161 473.318 211.637 473.318C211.113 473.318 210.683 473.454 210.344 473.726C210.006 473.998 209.756 474.354 209.594 474.795C209.431 475.236 209.35 475.711 209.35 476.222C209.35 476.732 209.431 477.206 209.594 477.643C209.756 478.081 210.006 478.434 210.344 478.702C210.683 478.971 211.113 479.105 211.637 479.105ZM221.701 476.878V472.364H222.874V480H221.701V478.707H221.621C221.442 479.095 221.164 479.425 220.786 479.697C220.408 479.965 219.931 480.099 219.354 480.099C218.877 480.099 218.453 479.995 218.081 479.786C217.71 479.574 217.419 479.256 217.206 478.832C216.994 478.404 216.888 477.866 216.888 477.216V472.364H218.062V477.136C218.062 477.693 218.217 478.137 218.529 478.469C218.844 478.8 219.245 478.966 219.732 478.966C220.024 478.966 220.32 478.891 220.622 478.742C220.927 478.593 221.182 478.364 221.388 478.056C221.596 477.748 221.701 477.355 221.701 476.878Z" fill="white" fill-opacity="0.45"/>
<path d="M313 483H327" stroke="black" stroke-width="2" stroke-linecap="round" stroke-linejoin="round"/>
<path d="M320 476V490" stroke="black" stroke-width="2" stroke-linecap="round" stroke-linejoin="round"/>
<rect x="330.5" y="256.5" width="139" height="139" rx="23.5" fill="white" stroke="#999999" stroke-dasharray="2 2"/>
<path d="M393 326H407" stroke="black" stroke-width="2" stroke-linecap="round" stroke-linejoin="round"/>
<path d="M400 319V333" stroke="black" stroke-width="2" stroke-linecap="round" stroke-linejoin="round"/>
<rect x="490.5" y="258.5" width="139" height="297" rx="23.5" fill="white" stroke="#999999" stroke-dasharray="2 2"/>
<path d="M553 407H567" stroke="black" stroke-width="2" stroke-linecap="round" stroke-linejoin="round"/>
<path d="M560 400V414" stroke="black" stroke-width="2" stroke-linecap="round" stroke-linejoin="round"/>
<rect x="170" y="39" width="84" height="37" rx="18.5" fill="#F5F5F5"/>
<rect x="420" y="39" width="210" height="37" rx="18.5" fill="#F5F5F5"/>
</svg>
